<svg xmlns="http://www.w3.org/2000/svg" xmlns:xlink="http://www.w3.org/1999/xlink" contentStyleType="text/css" height="183px" preserveAspectRatio="none" style="width:513px;height:183px;background:#FFFFFF;" version="1.1" viewBox="0 0 513 183" width="513px" zoomAndPan="magnify"><defs/><g><!--entity Jogador--><g id="elem_Jogador"><ellipse cx="261.1841" cy="14" fill="#F1F1F1" rx="8" ry="8" style="stroke:#181818;stroke-width:0.5;"/><path d="M261.1841,22 L261.1841,49 M248.1841,30 L274.1841,30 M261.1841,49 L248.1841,64 M261.1841,49 L274.1841,64 " fill="none" style="stroke:#181818;stroke-width:0.5;"/><text fill="#000000" font-family="sans-serif" font-size="14" lengthAdjust="spacing" textLength="53.3682" x="234.5" y="78.4951">Jogador</text></g><g id="elem_UC1"><ellipse cx="83.014" cy="159.3028" fill="#F1F1F1" rx="77.014" ry="17.8028" style="stroke:#181818;stroke-width:0.5;"/><text fill="#000000" font-family="sans-serif" font-size="14" lengthAdjust="spacing" textLength="111.1455" x="24.577" y="163.0152">Selecionar Pe&#231;a</text></g><g id="elem_UC2"><ellipse cx="260.7936" cy="159.5587" fill="#F1F1F1" rx="65.7936" ry="15.5587" style="stroke:#181818;stroke-width:0.5;"/><text fill="#000000" font-family="sans-serif" font-size="14" lengthAdjust="spacing" textLength="81.0811" x="217.253" y="163.3063">Mover Pe&#231;a</text></g><g id="elem_UC3"><ellipse cx="434.988" cy="159.3976" fill="#F1F1F1" rx="72.488" ry="16.8976" style="stroke:#181818;stroke-width:0.5;"/><text fill="#000000" font-family="sans-serif" font-size="14" lengthAdjust="spacing" textLength="99.4766" x="382.2497" y="163.1452">Capturar Pe&#231;a</text></g><!--link Jogador to UC1--><g id="link_Jogador_UC1"><path d="M234.35,61.57 C200.21,83.43 146.5332,117.8149 113.1532,139.1849 " fill="none" id="Jogador-to-UC1" style="stroke:#181818;stroke-width:1;"/><polygon fill="#181818" points="108.1,142.42,117.8364,140.9362,112.311,139.7241,113.523,134.1986,108.1,142.42" style="stroke:#181818;stroke-width:1;"/></g><!--link Jogador to UC2--><g id="link_Jogador_UC2"><path d="M261,81.51 C261,102.71 261,122.12 261,137.79 " fill="none" id="Jogador-to-UC2" style="stroke:#181818;stroke-width:1;"/><polygon fill="#181818" points="261,143.79,265,134.79,261,138.79,257,134.79,261,143.79" style="stroke:#181818;stroke-width:1;"/></g><!--link Jogador to UC3--><g id="link_Jogador_UC3"><path d="M287.81,62.06 C321.74,84.3 374.6312,118.9519 406.7612,140.0019 " fill="none" id="Jogador-to-UC3" style="stroke:#181818;stroke-width:1;"/><polygon fill="#181818" points="411.78,143.29,406.4438,135.012,407.5977,140.5499,402.0597,141.7038,411.78,143.29" style="stroke:#181818;stroke-width:1;"/></g><!--SRC=[IqmkoIzIyCfFJqp9B-BYAYrEJKuiJbLG2axDIKtEpCzBB588I3syF5598R5O8TJP4A72Dxyi5LNI227fd5XGKbg4fjcOYmjgaOAkhXtOD5I-4HhV6000]--></g></svg>