<svg xmlns="http://www.w3.org/2000/svg" contentStyleType="text/css" data-diagram-type="DESCRIPTION" height="183px"
     preserveAspectRatio="none" style="width:512px;height:183px;background:#FFFFFF;" version="1.1" viewBox="0 0 512 183"
     width="512px" zoomAndPan="magnify"><defs/><g><!--entity Jogador--><g id="elem_Jogador"><ellipse cx="261.0141" cy="14" fill="#F1F1F1" rx="8" ry="8" style="stroke:#181818;stroke-width:0.5;"/><path d="M261.0141,22 L261.0141,49 M248.0141,30 L274.0141,30 M261.0141,49 L248.0141,64 M261.0141,49 L274.0141,64 " fill="none" style="stroke:#181818;stroke-width:0.5;"/><text fill="#000000" font-family="sans-serif" font-size="14" lengthAdjust="spacing" textLength="53.3682" x="234.33" y="78.4951">Jogador</text></g><g id="elem_UC1"><ellipse cx="83.014" cy="159.6028" fill="#F1F1F1" rx="77.014" ry="17.8028" style="stroke:#181818;stroke-width:0.5;"/><text fill="#000000" font-family="sans-serif" font-size="14" lengthAdjust="spacing" textLength="111.1455" x="24.577" y="163.3152">Selecionar Pe&#231;a</text></g><g id="elem_UC2"><ellipse cx="261.0136" cy="159.5987" fill="#F1F1F1" rx="65.7936" ry="15.5587" style="stroke:#181818;stroke-width:0.5;"/><text fill="#000000" font-family="sans-serif" font-size="14" lengthAdjust="spacing" textLength="81.0811" x="217.473" y="163.3463">Mover Pe&#231;a</text></g><g id="elem_UC3"><ellipse cx="434.008" cy="159.5976" fill="#F1F1F1" rx="72.488" ry="16.8976" style="stroke:#181818;stroke-width:0.5;"/><text fill="#000000" font-family="sans-serif" font-size="14" lengthAdjust="spacing" textLength="99.4766" x="381.2697" y="163.3452">Capturar Pe&#231;a</text></g><!--link Jogador to UC1--><g id="link_Jogador_UC1"><path d="M233.98,61.95 C199.84,83.81 146.6136,117.8856 113.3336,139.1856 " fill="none" id="Jogador-to-UC1" style="stroke:#181818;stroke-width:1;"/><polygon fill="#181818" points="108.28,142.42,118.0166,140.9374,112.4913,139.7247,113.7041,134.1993,108.28,142.42" style="stroke:#181818;stroke-width:1;"/></g><!--link Jogador to UC2--><g id="link_Jogador_UC2"><path d="M261.01,82.27 C261.01,103.28 261.01,122.26 261.01,137.78 " fill="none" id="Jogador-to-UC2" style="stroke:#181818;stroke-width:1;"/><polygon fill="#181818" points="261.01,143.78,265.01,134.78,261.01,138.78,257.01,134.78,261.01,143.78" style="stroke:#181818;stroke-width:1;"/></g><!--link Jogador to UC3--><g id="link_Jogador_UC3"><path d="M288.05,62.45 C321.78,84.67 373.8996,118.9991 405.7596,139.9891 " fill="none" id="Jogador-to-UC3" style="stroke:#181818;stroke-width:1;"/><polygon fill="#181818" points="410.77,143.29,405.4551,134.9984,406.5947,140.5392,401.0538,141.6788,410.77,143.29" style="stroke:#181818;stroke-width:1;"/></g><!--SRC=[IqmkoIzIyCfFJqp9B-BYAYrEJKuiJbLG2axDIKtEpCzBB588I3syF5598R5O8TJP4A72Dxyi5LNI227fd5XGKbg4fjcOYmjgaOAkhXtOD5I-4HhV6000]--></g></svg>
