<svg xmlns="http://www.w3.org/2000/svg" xmlns:xlink="http://www.w3.org/1999/xlink" contentStyleType="text/css" height="620px" preserveAspectRatio="none" style="width:921px;height:620px;background:#FFFFFF;" version="1.1" viewBox="0 0 921 620" width="921px" zoomAndPan="magnify"><defs/><g><!--cluster model--><g id="cluster_model"><path d="M8.5,6 L58.0215,6 A3.75,3.75 0 0 1 60.5215,8.5 L67.5215,28.2969 L533.5,28.2969 A2.5,2.5 0 0 1 536,30.7969 L536,454.5 A2.5,2.5 0 0 1 533.5,457 L8.5,457 A2.5,2.5 0 0 1 6,454.5 L6,8.5 A2.5,2.5 0 0 1 8.5,6 " fill="none" style="stroke:#000000;stroke-width:1.5;"/><line style="stroke:#000000;stroke-width:1.5;" x1="6" x2="67.5215" y1="28.2969" y2="28.2969"/><text fill="#000000" font-family="sans-serif" font-size="14" font-weight="bold" lengthAdjust="spacing" textLength="48.5215" x="10" y="20.9951">model</text></g><!--cluster view--><g id="cluster_view"><path d="M286.5,481 L323.8535,481 A3.75,3.75 0 0 1 326.3535,483.5 L333.3535,503.2969 L890.5,503.2969 A2.5,2.5 0 0 1 893,505.7969 L893,610.5 A2.5,2.5 0 0 1 890.5,613 L286.5,613 A2.5,2.5 0 0 1 284,610.5 L284,483.5 A2.5,2.5 0 0 1 286.5,481 " fill="none" style="stroke:#000000;stroke-width:1.5;"/><line style="stroke:#000000;stroke-width:1.5;" x1="284" x2="333.3535" y1="503.2969" y2="503.2969"/><text fill="#000000" font-family="sans-serif" font-size="14" font-weight="bold" lengthAdjust="spacing" textLength="36.3535" x="288" y="495.9951">view</text></g><!--cluster controller--><g id="cluster_controller"><path d="M562.5,30.5 L640.5957,30.5 A3.75,3.75 0 0 1 643.0957,33 L650.0957,52.7969 L911.5,52.7969 A2.5,2.5 0 0 1 914,55.2969 L914,208 A2.5,2.5 0 0 1 911.5,210.5 L562.5,210.5 A2.5,2.5 0 0 1 560,208 L560,33 A2.5,2.5 0 0 1 562.5,30.5 " fill="none" style="stroke:#000000;stroke-width:1.5;"/><line style="stroke:#000000;stroke-width:1.5;" x1="560" x2="650.0957" y1="52.7969" y2="52.7969"/><text fill="#000000" font-family="sans-serif" font-size="14" font-weight="bold" lengthAdjust="spacing" textLength="77.0957" x="564" y="45.4951">controller</text></g><!--class Tabuleiro--><g id="elem_Tabuleiro"><rect codeLine="2" fill="#F1F1F1" height="178.375" id="Tabuleiro" rx="2.5" ry="2.5" style="stroke:#181818;stroke-width:0.5;" width="471.4365" x="35.5" y="41"/><ellipse cx="234.166" cy="57" fill="#ADD1B2" rx="11" ry="11" style="stroke:#181818;stroke-width:1;"/><path d="M237.1348,62.6406 Q236.5566,62.9375 235.916,63.0781 Q235.2754,63.2344 234.5723,63.2344 Q232.0723,63.2344 230.7441,61.5938 Q229.4316,59.9375 229.4316,56.8125 Q229.4316,53.6875 230.7441,52.0313 Q232.0723,50.375 234.5723,50.375 Q235.2754,50.375 235.916,50.5313 Q236.5723,50.6875 237.1348,50.9844 L237.1348,53.7031 Q236.5098,53.125 235.916,52.8594 Q235.3223,52.5781 234.6973,52.5781 Q233.3535,52.5781 232.666,53.6563 Q231.9785,54.7188 231.9785,56.8125 Q231.9785,58.9063 232.666,59.9844 Q233.3535,61.0469 234.6973,61.0469 Q235.3223,61.0469 235.916,60.7813 Q236.5098,60.5 237.1348,59.9219 L237.1348,62.6406 Z " fill="#000000"/><text fill="#000000" font-family="sans-serif" font-size="14" lengthAdjust="spacing" textLength="65.6045" x="254.666" y="61.8467">Tabuleiro</text><line style="stroke:#181818;stroke-width:0.5;" x1="36.5" x2="505.9365" y1="73" y2="73"/><rect fill="none" height="6" style="stroke:#C82930;stroke-width:1;" width="6" x="43.5" y="83.6484"/><text fill="#000000" font-family="sans-serif" font-size="14" lengthAdjust="spacing" textLength="105.417" x="55.5" y="89.9951">pecas: Peca[][]</text><text fill="#000000" font-family="sans-serif" font-size="14" lengthAdjust="spacing" textLength="4.4502" x="55.5" y="106.292">&#160;</text><ellipse cx="46.5" cy="119.2422" fill="none" rx="3" ry="3" style="stroke:#038048;stroke-width:1;"/><text fill="#000000" font-family="sans-serif" font-size="14" lengthAdjust="spacing" textLength="240.5566" x="55.5" y="122.5889">verificarMaxCapturasPossiveis: int</text><line style="stroke:#181818;stroke-width:0.5;" x1="36.5" x2="505.9365" y1="129.8906" y2="129.8906"/><ellipse cx="46.5" cy="143.5391" fill="#84BE84" rx="3" ry="3" style="stroke:#038048;stroke-width:1;"/><text fill="#000000" font-family="sans-serif" font-size="14" lengthAdjust="spacing" textLength="216.2891" x="55.5" y="146.8857">Tabuleiro(pecas: Peca[][]):void</text><ellipse cx="46.5" cy="159.8359" fill="#84BE84" rx="3" ry="3" style="stroke:#038048;stroke-width:1;"/><text fill="#000000" font-family="sans-serif" font-size="14" lengthAdjust="spacing" textLength="445.4365" x="55.5" y="163.1826">moverPeca(inicioX: int, inicioY: int, fimX: int, fimY: int): boolean</text><ellipse cx="46.5" cy="176.1328" fill="#84BE84" rx="3" ry="3" style="stroke:#038048;stroke-width:1;"/><text fill="#000000" font-family="sans-serif" font-size="14" lengthAdjust="spacing" textLength="226.8574" x="55.5" y="179.4795">obterPecaEm(x: int, y: int): Peca</text><ellipse cx="46.5" cy="192.4297" fill="#84BE84" rx="3" ry="3" style="stroke:#038048;stroke-width:1;"/><text fill="#000000" font-family="sans-serif" font-size="14" lengthAdjust="spacing" textLength="219.5498" x="55.5" y="195.7764">verificarPossiveisDamas(): void</text><ellipse cx="46.5" cy="208.7266" fill="#84BE84" rx="3" ry="3" style="stroke:#038048;stroke-width:1;"/><text fill="#000000" font-family="sans-serif" font-size="14" lengthAdjust="spacing" textLength="179.2041" x="55.5" y="212.0732">verificarVitoria(): boolean</text></g><!--class Peca--><g id="elem_Peca"><rect codeLine="13" fill="#F1F1F1" height="96.8906" id="Peca" rx="2.5" ry="2.5" style="stroke:#181818;stroke-width:0.5;" width="216.7158" x="22.5" y="311.5"/><ellipse cx="109.9419" cy="327.5" fill="#ADD1B2" rx="11" ry="11" style="stroke:#181818;stroke-width:1;"/><path d="M112.9106,333.1406 Q112.3325,333.4375 111.6919,333.5781 Q111.0513,333.7344 110.3481,333.7344 Q107.8481,333.7344 106.52,332.0938 Q105.2075,330.4375 105.2075,327.3125 Q105.2075,324.1875 106.52,322.5313 Q107.8481,320.875 110.3481,320.875 Q111.0513,320.875 111.6919,321.0313 Q112.3481,321.1875 112.9106,321.4844 L112.9106,324.2031 Q112.2856,323.625 111.6919,323.3594 Q111.0981,323.0781 110.4731,323.0781 Q109.1294,323.0781 108.4419,324.1563 Q107.7544,325.2188 107.7544,327.3125 Q107.7544,329.4063 108.4419,330.4844 Q109.1294,331.5469 110.4731,331.5469 Q111.0981,331.5469 111.6919,331.2813 Q112.2856,331 112.9106,330.4219 L112.9106,333.1406 Z " fill="#000000"/><text fill="#000000" font-family="sans-serif" font-size="14" lengthAdjust="spacing" textLength="33.332" x="130.4419" y="332.3467">Peca</text><line style="stroke:#181818;stroke-width:0.5;" x1="23.5" x2="238.2158" y1="343.5" y2="343.5"/><rect fill="none" height="6" style="stroke:#C82930;stroke-width:1;" width="6" x="30.5" y="354.1484"/><text fill="#000000" font-family="sans-serif" font-size="14" lengthAdjust="spacing" textLength="62.0908" x="42.5" y="360.4951">cor: char</text><rect fill="none" height="6" style="stroke:#C82930;stroke-width:1;" width="6" x="30.5" y="370.4453"/><text fill="#000000" font-family="sans-serif" font-size="14" lengthAdjust="spacing" textLength="117.8994" x="42.5" y="376.792">isDama: boolean</text><line style="stroke:#181818;stroke-width:0.5;" x1="23.5" x2="238.2158" y1="384.0938" y2="384.0938"/><ellipse cx="33.5" cy="397.7422" fill="#84BE84" rx="3" ry="3" style="stroke:#038048;stroke-width:1;"/><text fill="#000000" font-family="sans-serif" font-size="14" lengthAdjust="spacing" textLength="190.7158" x="42.5" y="401.0889">promoverParaDama(): void</text></g><!--class Jogo--><g id="elem_Jogo"><rect codeLine="20" fill="#F1F1F1" height="162.0781" id="Jogo" rx="2.5" ry="2.5" style="stroke:#181818;stroke-width:0.5;" width="245.0508" x="274.5" y="279"/><ellipse cx="377.7021" cy="295" fill="#ADD1B2" rx="11" ry="11" style="stroke:#181818;stroke-width:1;"/><path d="M380.6709,300.6406 Q380.0928,300.9375 379.4521,301.0781 Q378.8115,301.2344 378.1084,301.2344 Q375.6084,301.2344 374.2803,299.5938 Q372.9678,297.9375 372.9678,294.8125 Q372.9678,291.6875 374.2803,290.0313 Q375.6084,288.375 378.1084,288.375 Q378.8115,288.375 379.4521,288.5313 Q380.1084,288.6875 380.6709,288.9844 L380.6709,291.7031 Q380.0459,291.125 379.4521,290.8594 Q378.8584,290.5781 378.2334,290.5781 Q376.8896,290.5781 376.2021,291.6563 Q375.5146,292.7188 375.5146,294.8125 Q375.5146,296.9063 376.2021,297.9844 Q376.8896,299.0469 378.2334,299.0469 Q378.8584,299.0469 379.4521,298.7813 Q380.0459,298.5 380.6709,297.9219 L380.6709,300.6406 Z " fill="#000000"/><text fill="#000000" font-family="sans-serif" font-size="14" lengthAdjust="spacing" textLength="30.1465" x="398.2021" y="299.8467">Jogo</text><line style="stroke:#181818;stroke-width:0.5;" x1="275.5" x2="518.5508" y1="311" y2="311"/><rect fill="none" height="6" style="stroke:#C82930;stroke-width:1;" width="6" x="282.5" y="321.6484"/><text fill="#000000" font-family="sans-serif" font-size="14" lengthAdjust="spacing" textLength="129.6094" x="294.5" y="327.9951">jogadorAtual: char</text><rect fill="none" height="6" style="stroke:#C82930;stroke-width:1;" width="6" x="282.5" y="337.9453"/><text fill="#000000" font-family="sans-serif" font-size="14" lengthAdjust="spacing" textLength="175.123" x="294.5" y="344.292">contadorMovimentos: int</text><rect fill="none" height="6" style="stroke:#C82930;stroke-width:1;" width="6" x="282.5" y="354.2422"/><text fill="#000000" font-family="sans-serif" font-size="14" lengthAdjust="spacing" textLength="137.3135" x="294.5" y="360.5889">tabuleiro: Tabuleiro</text><rect fill="none" height="6" style="stroke:#C82930;stroke-width:1;" width="6" x="282.5" y="370.5391"/><text fill="#000000" font-family="sans-serif" font-size="14" lengthAdjust="spacing" textLength="168.3896" x="294.5" y="376.8857">tabuleiroTmp: Tabuleiro</text><line style="stroke:#181818;stroke-width:0.5;" x1="275.5" x2="518.5508" y1="384.1875" y2="384.1875"/><ellipse cx="285.5" cy="397.8359" fill="#84BE84" rx="3" ry="3" style="stroke:#038048;stroke-width:1;"/><text fill="#000000" font-family="sans-serif" font-size="14" lengthAdjust="spacing" textLength="132.9111" x="294.5" y="401.1826">iniciarTurno(): void</text><ellipse cx="285.5" cy="414.1328" fill="#84BE84" rx="3" ry="3" style="stroke:#038048;stroke-width:1;"/><text fill="#000000" font-family="sans-serif" font-size="14" lengthAdjust="spacing" textLength="146.0703" x="294.5" y="417.4795">finalizarTurno(): void</text><ellipse cx="285.5" cy="430.4297" fill="#84BE84" rx="3" ry="3" style="stroke:#038048;stroke-width:1;"/><text fill="#000000" font-family="sans-serif" font-size="14" lengthAdjust="spacing" textLength="219.0508" x="294.5" y="433.7764">verificarFimDeTurno(): boolean</text></g><!--class TabuleiroView--><g id="elem_TabuleiroView"><rect codeLine="33" fill="#F1F1F1" height="64.2969" id="TabuleiroView" rx="2.5" ry="2.5" style="stroke:#181818;stroke-width:0.5;" width="261.9766" x="300" y="524.5"/><ellipse cx="377.1709" cy="540.5" fill="#ADD1B2" rx="11" ry="11" style="stroke:#181818;stroke-width:1;"/><path d="M380.1396,546.1406 Q379.5615,546.4375 378.9209,546.5781 Q378.2803,546.7344 377.5771,546.7344 Q375.0771,546.7344 373.749,545.0938 Q372.4365,543.4375 372.4365,540.3125 Q372.4365,537.1875 373.749,535.5313 Q375.0771,533.875 377.5771,533.875 Q378.2803,533.875 378.9209,534.0313 Q379.5771,534.1875 380.1396,534.4844 L380.1396,537.2031 Q379.5146,536.625 378.9209,536.3594 Q378.3271,536.0781 377.7021,536.0781 Q376.3584,536.0781 375.6709,537.1563 Q374.9834,538.2188 374.9834,540.3125 Q374.9834,542.4063 375.6709,543.4844 Q376.3584,544.5469 377.7021,544.5469 Q378.3271,544.5469 378.9209,544.2813 Q379.5146,544 380.1396,543.4219 L380.1396,546.1406 Z " fill="#000000"/><text fill="#000000" font-family="sans-serif" font-size="14" lengthAdjust="spacing" textLength="99.1348" x="397.6709" y="545.3467">TabuleiroView</text><line style="stroke:#181818;stroke-width:0.5;" x1="301" x2="560.9766" y1="556.5" y2="556.5"/><line style="stroke:#181818;stroke-width:0.5;" x1="301" x2="560.9766" y1="564.5" y2="564.5"/><ellipse cx="311" cy="578.1484" fill="#84BE84" rx="3" ry="3" style="stroke:#038048;stroke-width:1;"/><text fill="#000000" font-family="sans-serif" font-size="14" lengthAdjust="spacing" textLength="235.9766" x="320" y="581.4951">exibirCasas(pecas: Peca[][]): void</text></g><!--class JogoView--><g id="elem_JogoView"><rect codeLine="37" fill="#F1F1F1" height="80.5938" id="JogoView" rx="2.5" ry="2.5" style="stroke:#181818;stroke-width:0.5;" width="279.0049" x="597.5" y="516"/><ellipse cx="700.9141" cy="532" fill="#ADD1B2" rx="11" ry="11" style="stroke:#181818;stroke-width:1;"/><path d="M703.8828,537.6406 Q703.3047,537.9375 702.6641,538.0781 Q702.0234,538.2344 701.3203,538.2344 Q698.8203,538.2344 697.4922,536.5938 Q696.1797,534.9375 696.1797,531.8125 Q696.1797,528.6875 697.4922,527.0313 Q698.8203,525.375 701.3203,525.375 Q702.0234,525.375 702.6641,525.5313 Q703.3203,525.6875 703.8828,525.9844 L703.8828,528.7031 Q703.2578,528.125 702.6641,527.8594 Q702.0703,527.5781 701.4453,527.5781 Q700.1016,527.5781 699.4141,528.6563 Q698.7266,529.7188 698.7266,531.8125 Q698.7266,533.9063 699.4141,534.9844 Q700.1016,536.0469 701.4453,536.0469 Q702.0703,536.0469 702.6641,535.7813 Q703.2578,535.5 703.8828,534.9219 L703.8828,537.6406 Z " fill="#000000"/><text fill="#000000" font-family="sans-serif" font-size="14" lengthAdjust="spacing" textLength="63.6768" x="721.4141" y="536.8467">JogoView</text><line style="stroke:#181818;stroke-width:0.5;" x1="598.5" x2="875.5049" y1="548" y2="548"/><line style="stroke:#181818;stroke-width:0.5;" x1="598.5" x2="875.5049" y1="556" y2="556"/><ellipse cx="608.5" cy="569.6484" fill="#84BE84" rx="3" ry="3" style="stroke:#038048;stroke-width:1;"/><text fill="#000000" font-family="sans-serif" font-size="14" lengthAdjust="spacing" textLength="253.0049" x="617.5" y="572.9951">exibirMensagem(texto: String): void</text><ellipse cx="608.5" cy="585.9453" fill="#84BE84" rx="3" ry="3" style="stroke:#038048;stroke-width:1;"/><text fill="#000000" font-family="sans-serif" font-size="14" lengthAdjust="spacing" textLength="170.8164" x="617.5" y="589.292">receberEntrada(): String</text></g><!--class JogoController--><g id="elem_JogoController"><rect codeLine="44" fill="#F1F1F1" height="129.4844" id="JogoController" rx="2.5" ry="2.5" style="stroke:#181818;stroke-width:0.5;" width="320.8135" x="576.5" y="65.5"/><ellipse cx="682.9971" cy="81.5" fill="#ADD1B2" rx="11" ry="11" style="stroke:#181818;stroke-width:1;"/><path d="M685.9658,87.1406 Q685.3877,87.4375 684.7471,87.5781 Q684.1064,87.7344 683.4033,87.7344 Q680.9033,87.7344 679.5752,86.0938 Q678.2627,84.4375 678.2627,81.3125 Q678.2627,78.1875 679.5752,76.5313 Q680.9033,74.875 683.4033,74.875 Q684.1064,74.875 684.7471,75.0313 Q685.4033,75.1875 685.9658,75.4844 L685.9658,78.2031 Q685.3408,77.625 684.7471,77.3594 Q684.1533,77.0781 683.5283,77.0781 Q682.1846,77.0781 681.4971,78.1563 Q680.8096,79.2188 680.8096,81.3125 Q680.8096,83.4063 681.4971,84.4844 Q682.1846,85.5469 683.5283,85.5469 Q684.1533,85.5469 684.7471,85.2813 Q685.3408,85 685.9658,84.4219 L685.9658,87.1406 Z " fill="#000000"/><text fill="#000000" font-family="sans-serif" font-size="14" lengthAdjust="spacing" textLength="99.3193" x="703.4971" y="86.3467">JogoController</text><line style="stroke:#181818;stroke-width:0.5;" x1="577.5" x2="896.3135" y1="97.5" y2="97.5"/><rect fill="none" height="6" style="stroke:#C82930;stroke-width:1;" width="6" x="584.5" y="108.1484"/><text fill="#000000" font-family="sans-serif" font-size="14" lengthAdjust="spacing" textLength="111.2549" x="596.5" y="114.4951">jogoModel: Jogo</text><rect fill="none" height="6" style="stroke:#C82930;stroke-width:1;" width="6" x="584.5" y="124.4453"/><text fill="#000000" font-family="sans-serif" font-size="14" lengthAdjust="spacing" textLength="204.374" x="596.5" y="130.792">tabuleiroView: TabuleiroView</text><rect fill="none" height="6" style="stroke:#C82930;stroke-width:1;" width="6" x="584.5" y="140.7422"/><text fill="#000000" font-family="sans-serif" font-size="14" lengthAdjust="spacing" textLength="136.2813" x="596.5" y="147.0889">jogoView: JogoView</text><line style="stroke:#181818;stroke-width:0.5;" x1="577.5" x2="896.3135" y1="154.3906" y2="154.3906"/><ellipse cx="587.5" cy="168.0391" fill="#84BE84" rx="3" ry="3" style="stroke:#038048;stroke-width:1;"/><text fill="#000000" font-family="sans-serif" font-size="14" lengthAdjust="spacing" textLength="129.165" x="596.5" y="171.3857">loopDeJogo(): void</text><rect fill="#F24D5C" height="6" style="stroke:#C82930;stroke-width:1;" width="6" x="584.5" y="181.3359"/><text fill="#000000" font-family="sans-serif" font-size="14" lengthAdjust="spacing" textLength="294.8135" x="596.5" y="187.6826">receberMovimento(String entrada): String</text></g><!--reverse link Tabuleiro to Peca--><g id="link_Tabuleiro_Peca"><path codeLine="54" d="M210.5927,229.3772 C191.3627,260.7072 176.71,284.56 160.33,311.23 " fill="none" id="Tabuleiro-backto-Peca" style="stroke:#181818;stroke-width:1;"/><polygon fill="#181818" points="216.87,219.15,210.3223,222.1711,210.5927,229.3772,217.1404,226.356,216.87,219.15" style="stroke:#181818;stroke-width:1;"/></g><!--link Tabuleiro to Jogo--><g id="link_Tabuleiro_Jogo"><path codeLine="55" d="M319.71,219.15 C330.59,238.82 336.2568,249.0766 346.9368,268.4066 " fill="none" id="Tabuleiro-to-Jogo" style="stroke:#181818;stroke-width:1;"/><polygon fill="#181818" points="352.74,278.91,353.3395,271.7239,346.9368,268.4066,346.3372,275.5927,352.74,278.91" style="stroke:#181818;stroke-width:1;"/></g><!--link Peca to TabuleiroView--><g id="link_Peca_TabuleiroView"><path codeLine="56" d="M183.65,408.65 C205.53,427.33 231.69,448.25 257,465 C290.64,487.27 325.0318,505.6805 358.0618,521.8605 " fill="none" id="Peca-to-TabuleiroView" style="stroke:#181818;stroke-width:1;stroke-dasharray:7.0,7.0;"/><polygon fill="#181818" points="363.45,524.5,357.1273,516.9486,358.9598,522.3004,353.608,524.133,363.45,524.5" style="stroke:#181818;stroke-width:1;"/></g><!--reverse link JogoController to TabuleiroView--><g id="link_JogoController_TabuleiroView"><path codeLine="57" d="M701.0693,205.326 C665.6593,275.586 608.21,379.38 536,465 C517.54,486.89 493.55,507.99 473.17,524.3 " fill="none" id="JogoController-backto-TabuleiroView" style="stroke:#181818;stroke-width:1;"/><polygon fill="#181818" points="706.47,194.61,700.1977,198.1678,701.0693,205.326,707.3416,201.7682,706.47,194.61" style="stroke:#181818;stroke-width:1;"/></g><!--reverse link JogoController to JogoView--><g id="link_JogoController_JogoView"><path codeLine="58" d="M737,206.55 C737,295.37 737,441.99 737,515.75 " fill="none" id="JogoController-backto-JogoView" style="stroke:#181818;stroke-width:1;"/><polygon fill="#181818" points="737,194.55,733,200.55,737,206.55,741,200.55,737,194.55" style="stroke:#181818;stroke-width:1;"/></g><!--reverse link JogoController to Jogo--><g id="link_JogoController_Jogo"><path codeLine="59" d="M632.3243,201.1947 C593.3243,227.3547 557.66,251.26 516.4,278.93 " fill="none" id="JogoController-backto-Jogo" style="stroke:#181818;stroke-width:1;"/><polygon fill="#181818" points="642.29,194.51,635.0789,194.5304,632.3243,201.1947,639.5354,201.1742,642.29,194.51" style="stroke:#181818;stroke-width:1;"/></g><!--SRC=[XLJBRjj03BpxA_QeF9GFqA50OAU70WO2r0XI13bGCksorIu5xbfr6-JVgzNAMhtIwYA9794p7AugA7x24PNcFPRgRQMQgoZ1MhM3_5GY2NTHVwKL5c0pzTZSNbvVNbTzvgQ79nFCLLOpxIDGSutYamaPAeYVCqN6tQhmzgrxEv1-ZeyXUfMfdBb4CB4QvovKUz39kVlWzmNjun7QjAK35I2FR2tLI7O36cpI0CSCU-0JEHQ2PAbn3zh2UGsLEmdOld1BeCM-hmOZzNo6qonOCbLy1ucXG2hsYmqhuJ0w4F2O4UzHcozy79dsWu-mPxbt9oYd_GespYUtN9D6utZ0lGMuYwzPt8Y5x4vNGq2atTeAiZk9uVce3sIWf3yVvlifVoQzmHuqTEDzrOYlkZMk2NyjR_5JpBILyKmvoHfiim6pZVt7O9VhRD7OfhzE79vTCwglJiWSPt842ynH7emJsBSE1k1SYFT5k2nHHd8yW_KqTJ6Pj_uGPoremIBFF1iFPFnv05n43ZmicQiD-iJCeRIJrEzF4XGf31eN9COVotMQXZCQGsbw7VYtP-NkxjE4y6G0li9_0RsY3t9_0G00]--></g></svg>