<svg xmlns="http://www.w3.org/2000/svg" xmlns:xlink="http://www.w3.org/1999/xlink" contentStyleType="text/css" height="448px" preserveAspectRatio="none" style="width:1212px;height:448px;background:#FFFFFF;" version="1.1" viewBox="0 0 1212 448" width="1212px" zoomAndPan="magnify"><defs/><g><!--cluster model--><g id="cluster_model"><path d="M8.5,6 L58.0215,6 A3.75,3.75 0 0 1 60.5215,8.5 L67.5215,28.2969 L533.5,28.2969 A2.5,2.5 0 0 1 536,30.7969 L536,438.5 A2.5,2.5 0 0 1 533.5,441 L8.5,441 A2.5,2.5 0 0 1 6,438.5 L6,8.5 A2.5,2.5 0 0 1 8.5,6 " fill="none" style="stroke:#000000;stroke-width:1.5;"/><line style="stroke:#000000;stroke-width:1.5;" x1="6" x2="67.5215" y1="28.2969" y2="28.2969"/><text fill="#000000" font-family="sans-serif" font-size="14" font-weight="bold" lengthAdjust="spacing" textLength="48.5215" x="10" y="20.9951">model</text></g><!--cluster view--><g id="cluster_view"><path d="M572.5,268.5 L609.8535,268.5 A3.75,3.75 0 0 1 612.3535,271 L619.3535,290.7969 L1202.5,290.7969 A2.5,2.5 0 0 1 1205,293.2969 L1205,398 A2.5,2.5 0 0 1 1202.5,400.5 L572.5,400.5 A2.5,2.5 0 0 1 570,398 L570,271 A2.5,2.5 0 0 1 572.5,268.5 " fill="none" style="stroke:#000000;stroke-width:1.5;"/><line style="stroke:#000000;stroke-width:1.5;" x1="570" x2="619.3535" y1="290.7969" y2="290.7969"/><text fill="#000000" font-family="sans-serif" font-size="14" font-weight="bold" lengthAdjust="spacing" textLength="36.3535" x="574" y="283.4951">view</text></g><!--cluster controller--><g id="cluster_controller"><path d="M562.5,22.5 L640.5957,22.5 A3.75,3.75 0 0 1 643.0957,25 L650.0957,44.7969 L911.5,44.7969 A2.5,2.5 0 0 1 914,47.2969 L914,200 A2.5,2.5 0 0 1 911.5,202.5 L562.5,202.5 A2.5,2.5 0 0 1 560,200 L560,25 A2.5,2.5 0 0 1 562.5,22.5 " fill="none" style="stroke:#000000;stroke-width:1.5;"/><line style="stroke:#000000;stroke-width:1.5;" x1="560" x2="650.0957" y1="44.7969" y2="44.7969"/><text fill="#000000" font-family="sans-serif" font-size="14" font-weight="bold" lengthAdjust="spacing" textLength="77.0957" x="564" y="37.4951">controller</text></g><!--class Tabuleiro--><g id="elem_Tabuleiro"><rect codeLine="2" fill="#F1F1F1" height="162.0781" id="Tabuleiro" rx="2.5" ry="2.5" style="stroke:#181818;stroke-width:0.5;" width="471.4365" x="35.5" y="41"/><ellipse cx="234.166" cy="57" fill="#ADD1B2" rx="11" ry="11" style="stroke:#181818;stroke-width:1;"/><path d="M237.1348,62.6406 Q236.5566,62.9375 235.916,63.0781 Q235.2754,63.2344 234.5723,63.2344 Q232.0723,63.2344 230.7441,61.5938 Q229.4316,59.9375 229.4316,56.8125 Q229.4316,53.6875 230.7441,52.0313 Q232.0723,50.375 234.5723,50.375 Q235.2754,50.375 235.916,50.5313 Q236.5723,50.6875 237.1348,50.9844 L237.1348,53.7031 Q236.5098,53.125 235.916,52.8594 Q235.3223,52.5781 234.6973,52.5781 Q233.3535,52.5781 232.666,53.6563 Q231.9785,54.7188 231.9785,56.8125 Q231.9785,58.9063 232.666,59.9844 Q233.3535,61.0469 234.6973,61.0469 Q235.3223,61.0469 235.916,60.7813 Q236.5098,60.5 237.1348,59.9219 L237.1348,62.6406 Z " fill="#000000"/><text fill="#000000" font-family="sans-serif" font-size="14" lengthAdjust="spacing" textLength="65.6045" x="254.666" y="61.8467">Tabuleiro</text><line style="stroke:#181818;stroke-width:0.5;" x1="36.5" x2="505.9365" y1="73" y2="73"/><rect fill="none" height="6" style="stroke:#C82930;stroke-width:1;" width="6" x="43.5" y="83.6484"/><text fill="#000000" font-family="sans-serif" font-size="14" lengthAdjust="spacing" textLength="105.417" x="55.5" y="89.9951">pecas: Peca[][]</text><line style="stroke:#181818;stroke-width:0.5;" x1="36.5" x2="505.9365" y1="97.2969" y2="97.2969"/><ellipse cx="46.5" cy="110.9453" fill="#84BE84" rx="3" ry="3" style="stroke:#038048;stroke-width:1;"/><text fill="#000000" font-family="sans-serif" font-size="14" lengthAdjust="spacing" textLength="216.2891" x="55.5" y="114.292">Tabuleiro(pecas: Peca[][]):void</text><ellipse cx="46.5" cy="127.2422" fill="#84BE84" rx="3" ry="3" style="stroke:#038048;stroke-width:1;"/><text fill="#000000" font-family="sans-serif" font-size="14" lengthAdjust="spacing" textLength="445.4365" x="55.5" y="130.5889">moverPeca(inicioX: int, inicioY: int, fimX: int, fimY: int): boolean</text><ellipse cx="46.5" cy="143.5391" fill="#84BE84" rx="3" ry="3" style="stroke:#038048;stroke-width:1;"/><text fill="#000000" font-family="sans-serif" font-size="14" lengthAdjust="spacing" textLength="226.8574" x="55.5" y="146.8857">obterPecaEm(x: int, y: int): Peca</text><ellipse cx="46.5" cy="159.8359" fill="#84BE84" rx="3" ry="3" style="stroke:#038048;stroke-width:1;"/><text fill="#000000" font-family="sans-serif" font-size="14" lengthAdjust="spacing" textLength="219.5498" x="55.5" y="163.1826">verificarPossiveisDamas(): void</text><ellipse cx="46.5" cy="176.1328" fill="#84BE84" rx="3" ry="3" style="stroke:#038048;stroke-width:1;"/><text fill="#000000" font-family="sans-serif" font-size="14" lengthAdjust="spacing" textLength="179.2041" x="55.5" y="179.4795">verificarVitoria(): boolean</text><ellipse cx="46.5" cy="192.4297" fill="#84BE84" rx="3" ry="3" style="stroke:#038048;stroke-width:1;"/><text fill="#000000" font-family="sans-serif" font-size="14" lengthAdjust="spacing" textLength="251.4805" x="55.5" y="195.7764">verificarMaxCapturasPossiveis(): int</text></g><!--class Peca--><g id="elem_Peca"><rect codeLine="13" fill="#F1F1F1" height="96.8906" id="Peca" rx="2.5" ry="2.5" style="stroke:#181818;stroke-width:0.5;" width="216.7158" x="22.5" y="295.5"/><ellipse cx="109.9419" cy="311.5" fill="#ADD1B2" rx="11" ry="11" style="stroke:#181818;stroke-width:1;"/><path d="M112.9106,317.1406 Q112.3325,317.4375 111.6919,317.5781 Q111.0513,317.7344 110.3481,317.7344 Q107.8481,317.7344 106.52,316.0938 Q105.2075,314.4375 105.2075,311.3125 Q105.2075,308.1875 106.52,306.5313 Q107.8481,304.875 110.3481,304.875 Q111.0513,304.875 111.6919,305.0313 Q112.3481,305.1875 112.9106,305.4844 L112.9106,308.2031 Q112.2856,307.625 111.6919,307.3594 Q111.0981,307.0781 110.4731,307.0781 Q109.1294,307.0781 108.4419,308.1563 Q107.7544,309.2188 107.7544,311.3125 Q107.7544,313.4063 108.4419,314.4844 Q109.1294,315.5469 110.4731,315.5469 Q111.0981,315.5469 111.6919,315.2813 Q112.2856,315 112.9106,314.4219 L112.9106,317.1406 Z " fill="#000000"/><text fill="#000000" font-family="sans-serif" font-size="14" lengthAdjust="spacing" textLength="33.332" x="130.4419" y="316.3467">Peca</text><line style="stroke:#181818;stroke-width:0.5;" x1="23.5" x2="238.2158" y1="327.5" y2="327.5"/><rect fill="none" height="6" style="stroke:#C82930;stroke-width:1;" width="6" x="30.5" y="338.1484"/><text fill="#000000" font-family="sans-serif" font-size="14" lengthAdjust="spacing" textLength="62.0908" x="42.5" y="344.4951">cor: char</text><rect fill="none" height="6" style="stroke:#C82930;stroke-width:1;" width="6" x="30.5" y="354.4453"/><text fill="#000000" font-family="sans-serif" font-size="14" lengthAdjust="spacing" textLength="117.8994" x="42.5" y="360.792">isDama: boolean</text><line style="stroke:#181818;stroke-width:0.5;" x1="23.5" x2="238.2158" y1="368.0938" y2="368.0938"/><ellipse cx="33.5" cy="381.7422" fill="#84BE84" rx="3" ry="3" style="stroke:#038048;stroke-width:1;"/><text fill="#000000" font-family="sans-serif" font-size="14" lengthAdjust="spacing" textLength="190.7158" x="42.5" y="385.0889">promoverParaDama(): void</text></g><!--class Jogo--><g id="elem_Jogo"><rect codeLine="20" fill="#F1F1F1" height="162.0781" id="Jogo" rx="2.5" ry="2.5" style="stroke:#181818;stroke-width:0.5;" width="245.0508" x="274.5" y="263"/><ellipse cx="377.7021" cy="279" fill="#ADD1B2" rx="11" ry="11" style="stroke:#181818;stroke-width:1;"/><path d="M380.6709,284.6406 Q380.0928,284.9375 379.4521,285.0781 Q378.8115,285.2344 378.1084,285.2344 Q375.6084,285.2344 374.2803,283.5938 Q372.9678,281.9375 372.9678,278.8125 Q372.9678,275.6875 374.2803,274.0313 Q375.6084,272.375 378.1084,272.375 Q378.8115,272.375 379.4521,272.5313 Q380.1084,272.6875 380.6709,272.9844 L380.6709,275.7031 Q380.0459,275.125 379.4521,274.8594 Q378.8584,274.5781 378.2334,274.5781 Q376.8896,274.5781 376.2021,275.6563 Q375.5146,276.7188 375.5146,278.8125 Q375.5146,280.9063 376.2021,281.9844 Q376.8896,283.0469 378.2334,283.0469 Q378.8584,283.0469 379.4521,282.7813 Q380.0459,282.5 380.6709,281.9219 L380.6709,284.6406 Z " fill="#000000"/><text fill="#000000" font-family="sans-serif" font-size="14" lengthAdjust="spacing" textLength="30.1465" x="398.2021" y="283.8467">Jogo</text><line style="stroke:#181818;stroke-width:0.5;" x1="275.5" x2="518.5508" y1="295" y2="295"/><rect fill="none" height="6" style="stroke:#C82930;stroke-width:1;" width="6" x="282.5" y="305.6484"/><text fill="#000000" font-family="sans-serif" font-size="14" lengthAdjust="spacing" textLength="129.6094" x="294.5" y="311.9951">jogadorAtual: char</text><rect fill="none" height="6" style="stroke:#C82930;stroke-width:1;" width="6" x="282.5" y="321.9453"/><text fill="#000000" font-family="sans-serif" font-size="14" lengthAdjust="spacing" textLength="175.123" x="294.5" y="328.292">contadorMovimentos: int</text><rect fill="none" height="6" style="stroke:#C82930;stroke-width:1;" width="6" x="282.5" y="338.2422"/><text fill="#000000" font-family="sans-serif" font-size="14" lengthAdjust="spacing" textLength="137.3135" x="294.5" y="344.5889">tabuleiro: Tabuleiro</text><rect fill="none" height="6" style="stroke:#C82930;stroke-width:1;" width="6" x="282.5" y="354.5391"/><text fill="#000000" font-family="sans-serif" font-size="14" lengthAdjust="spacing" textLength="168.3896" x="294.5" y="360.8857">tabuleiroTmp: Tabuleiro</text><line style="stroke:#181818;stroke-width:0.5;" x1="275.5" x2="518.5508" y1="368.1875" y2="368.1875"/><ellipse cx="285.5" cy="381.8359" fill="#84BE84" rx="3" ry="3" style="stroke:#038048;stroke-width:1;"/><text fill="#000000" font-family="sans-serif" font-size="14" lengthAdjust="spacing" textLength="132.9111" x="294.5" y="385.1826">iniciarTurno(): void</text><ellipse cx="285.5" cy="398.1328" fill="#84BE84" rx="3" ry="3" style="stroke:#038048;stroke-width:1;"/><text fill="#000000" font-family="sans-serif" font-size="14" lengthAdjust="spacing" textLength="146.0703" x="294.5" y="401.4795">finalizarTurno(): void</text><ellipse cx="285.5" cy="414.4297" fill="#84BE84" rx="3" ry="3" style="stroke:#038048;stroke-width:1;"/><text fill="#000000" font-family="sans-serif" font-size="14" lengthAdjust="spacing" textLength="219.0508" x="294.5" y="417.7764">verificarFimDeTurno(): boolean</text></g><!--class TabuleiroView--><g id="elem_TabuleiroView"><rect codeLine="33" fill="#F1F1F1" height="64.2969" id="TabuleiroView" rx="2.5" ry="2.5" style="stroke:#181818;stroke-width:0.5;" width="289.1563" x="900.5" y="312"/><ellipse cx="991.2607" cy="328" fill="#ADD1B2" rx="11" ry="11" style="stroke:#181818;stroke-width:1;"/><path d="M994.2295,333.6406 Q993.6514,333.9375 993.0107,334.0781 Q992.3701,334.2344 991.667,334.2344 Q989.167,334.2344 987.8389,332.5938 Q986.5264,330.9375 986.5264,327.8125 Q986.5264,324.6875 987.8389,323.0313 Q989.167,321.375 991.667,321.375 Q992.3701,321.375 993.0107,321.5313 Q993.667,321.6875 994.2295,321.9844 L994.2295,324.7031 Q993.6045,324.125 993.0107,323.8594 Q992.417,323.5781 991.792,323.5781 Q990.4482,323.5781 989.7607,324.6563 Q989.0732,325.7188 989.0732,327.8125 Q989.0732,329.9063 989.7607,330.9844 Q990.4482,332.0469 991.792,332.0469 Q992.417,332.0469 993.0107,331.7813 Q993.6045,331.5 994.2295,330.9219 L994.2295,333.6406 Z " fill="#000000"/><text fill="#000000" font-family="sans-serif" font-size="14" lengthAdjust="spacing" textLength="99.1348" x="1011.7607" y="332.8467">TabuleiroView</text><line style="stroke:#181818;stroke-width:0.5;" x1="901.5" x2="1188.6563" y1="344" y2="344"/><line style="stroke:#181818;stroke-width:0.5;" x1="901.5" x2="1188.6563" y1="352" y2="352"/><ellipse cx="911.5" cy="365.6484" fill="#84BE84" rx="3" ry="3" style="stroke:#038048;stroke-width:1;"/><text fill="#000000" font-family="sans-serif" font-size="14" lengthAdjust="spacing" textLength="263.1563" x="920.5" y="368.9951">exibirCasas(tabuleiro: Tabuleiro) void</text></g><!--class JogoView--><g id="elem_JogoView"><rect codeLine="37" fill="#F1F1F1" height="80.5938" id="JogoView" rx="2.5" ry="2.5" style="stroke:#181818;stroke-width:0.5;" width="279.0049" x="586.5" y="303.5"/><ellipse cx="689.9141" cy="319.5" fill="#ADD1B2" rx="11" ry="11" style="stroke:#181818;stroke-width:1;"/><path d="M692.8828,325.1406 Q692.3047,325.4375 691.6641,325.5781 Q691.0234,325.7344 690.3203,325.7344 Q687.8203,325.7344 686.4922,324.0938 Q685.1797,322.4375 685.1797,319.3125 Q685.1797,316.1875 686.4922,314.5313 Q687.8203,312.875 690.3203,312.875 Q691.0234,312.875 691.6641,313.0313 Q692.3203,313.1875 692.8828,313.4844 L692.8828,316.2031 Q692.2578,315.625 691.6641,315.3594 Q691.0703,315.0781 690.4453,315.0781 Q689.1016,315.0781 688.4141,316.1563 Q687.7266,317.2188 687.7266,319.3125 Q687.7266,321.4063 688.4141,322.4844 Q689.1016,323.5469 690.4453,323.5469 Q691.0703,323.5469 691.6641,323.2813 Q692.2578,323 692.8828,322.4219 L692.8828,325.1406 Z " fill="#000000"/><text fill="#000000" font-family="sans-serif" font-size="14" lengthAdjust="spacing" textLength="63.6768" x="710.4141" y="324.3467">JogoView</text><line style="stroke:#181818;stroke-width:0.5;" x1="587.5" x2="864.5049" y1="335.5" y2="335.5"/><line style="stroke:#181818;stroke-width:0.5;" x1="587.5" x2="864.5049" y1="343.5" y2="343.5"/><ellipse cx="597.5" cy="357.1484" fill="#84BE84" rx="3" ry="3" style="stroke:#038048;stroke-width:1;"/><text fill="#000000" font-family="sans-serif" font-size="14" lengthAdjust="spacing" textLength="253.0049" x="606.5" y="360.4951">exibirMensagem(texto: String): void</text><ellipse cx="597.5" cy="373.4453" fill="#84BE84" rx="3" ry="3" style="stroke:#038048;stroke-width:1;"/><text fill="#000000" font-family="sans-serif" font-size="14" lengthAdjust="spacing" textLength="170.8164" x="606.5" y="376.792">receberEntrada(): String</text></g><!--class JogoController--><g id="elem_JogoController"><rect codeLine="44" fill="#F1F1F1" height="129.4844" id="JogoController" rx="2.5" ry="2.5" style="stroke:#181818;stroke-width:0.5;" width="320.8135" x="576.5" y="57.5"/><ellipse cx="682.9971" cy="73.5" fill="#ADD1B2" rx="11" ry="11" style="stroke:#181818;stroke-width:1;"/><path d="M685.9658,79.1406 Q685.3877,79.4375 684.7471,79.5781 Q684.1064,79.7344 683.4033,79.7344 Q680.9033,79.7344 679.5752,78.0938 Q678.2627,76.4375 678.2627,73.3125 Q678.2627,70.1875 679.5752,68.5313 Q680.9033,66.875 683.4033,66.875 Q684.1064,66.875 684.7471,67.0313 Q685.4033,67.1875 685.9658,67.4844 L685.9658,70.2031 Q685.3408,69.625 684.7471,69.3594 Q684.1533,69.0781 683.5283,69.0781 Q682.1846,69.0781 681.4971,70.1563 Q680.8096,71.2188 680.8096,73.3125 Q680.8096,75.4063 681.4971,76.4844 Q682.1846,77.5469 683.5283,77.5469 Q684.1533,77.5469 684.7471,77.2813 Q685.3408,77 685.9658,76.4219 L685.9658,79.1406 Z " fill="#000000"/><text fill="#000000" font-family="sans-serif" font-size="14" lengthAdjust="spacing" textLength="99.3193" x="703.4971" y="78.3467">JogoController</text><line style="stroke:#181818;stroke-width:0.5;" x1="577.5" x2="896.3135" y1="89.5" y2="89.5"/><rect fill="none" height="6" style="stroke:#C82930;stroke-width:1;" width="6" x="584.5" y="100.1484"/><text fill="#000000" font-family="sans-serif" font-size="14" lengthAdjust="spacing" textLength="111.2549" x="596.5" y="106.4951">jogoModel: Jogo</text><rect fill="none" height="6" style="stroke:#C82930;stroke-width:1;" width="6" x="584.5" y="116.4453"/><text fill="#000000" font-family="sans-serif" font-size="14" lengthAdjust="spacing" textLength="204.374" x="596.5" y="122.792">tabuleiroView: TabuleiroView</text><rect fill="none" height="6" style="stroke:#C82930;stroke-width:1;" width="6" x="584.5" y="132.7422"/><text fill="#000000" font-family="sans-serif" font-size="14" lengthAdjust="spacing" textLength="136.2813" x="596.5" y="139.0889">jogoView: JogoView</text><line style="stroke:#181818;stroke-width:0.5;" x1="577.5" x2="896.3135" y1="146.3906" y2="146.3906"/><ellipse cx="587.5" cy="160.0391" fill="#84BE84" rx="3" ry="3" style="stroke:#038048;stroke-width:1;"/><text fill="#000000" font-family="sans-serif" font-size="14" lengthAdjust="spacing" textLength="129.165" x="596.5" y="163.3857">loopDeJogo(): void</text><rect fill="#F24D5C" height="6" style="stroke:#C82930;stroke-width:1;" width="6" x="584.5" y="173.3359"/><text fill="#000000" font-family="sans-serif" font-size="14" lengthAdjust="spacing" textLength="294.8135" x="596.5" y="179.6826">receberMovimento(String entrada): String</text></g><!--class Main--><g id="elem_Main"><rect codeLine="54" fill="#F1F1F1" height="80.5938" id="Main" rx="2.5" ry="2.5" style="stroke:#181818;stroke-width:0.5;" width="233.8057" x="933" y="81.5"/><ellipse cx="1028.9424" cy="97.5" fill="#ADD1B2" rx="11" ry="11" style="stroke:#181818;stroke-width:1;"/><path d="M1031.9111,103.1406 Q1031.333,103.4375 1030.6924,103.5781 Q1030.0518,103.7344 1029.3486,103.7344 Q1026.8486,103.7344 1025.5205,102.0938 Q1024.208,100.4375 1024.208,97.3125 Q1024.208,94.1875 1025.5205,92.5313 Q1026.8486,90.875 1029.3486,90.875 Q1030.0518,90.875 1030.6924,91.0313 Q1031.3486,91.1875 1031.9111,91.4844 L1031.9111,94.2031 Q1031.2861,93.625 1030.6924,93.3594 Q1030.0986,93.0781 1029.4736,93.0781 Q1028.1299,93.0781 1027.4424,94.1563 Q1026.7549,95.2188 1026.7549,97.3125 Q1026.7549,99.4063 1027.4424,100.4844 Q1028.1299,101.5469 1029.4736,101.5469 Q1030.0986,101.5469 1030.6924,101.2813 Q1031.2861,101 1031.9111,100.4219 L1031.9111,103.1406 Z " fill="#000000"/><text fill="#000000" font-family="sans-serif" font-size="14" lengthAdjust="spacing" textLength="33.4209" x="1049.4424" y="102.3467">Main</text><line style="stroke:#181818;stroke-width:0.5;" x1="934" x2="1165.8057" y1="113.5" y2="113.5"/><rect fill="none" height="6" style="stroke:#C82930;stroke-width:1;" width="6" x="941" y="124.1484"/><text fill="#000000" font-family="sans-serif" font-size="14" lengthAdjust="spacing" textLength="207.8057" x="953" y="130.4951">JogoController: JogoController</text><line style="stroke:#181818;stroke-width:0.5;" x1="934" x2="1165.8057" y1="137.7969" y2="137.7969"/><ellipse cx="944" cy="151.4453" fill="#84BE84" rx="3" ry="3" style="stroke:#038048;stroke-width:1;"/><text fill="#000000" font-family="sans-serif" font-size="14" lengthAdjust="spacing" textLength="177.085" x="953" y="154.792">main(args[]: String): void</text></g><!--reverse link Tabuleiro to Peca--><g id="link_Tabuleiro_Peca"><path codeLine="60" d="M213.6179,213.1742 C193.9179,244.1342 178.48,268.39 161.33,295.34 " fill="none" id="Tabuleiro-backto-Peca" style="stroke:#181818;stroke-width:1;"/><polygon fill="#181818" points="220.06,203.05,213.4642,205.9647,213.6179,213.1742,220.2137,210.2595,220.06,203.05" style="stroke:#181818;stroke-width:1;"/></g><!--link Tabuleiro to Jogo--><g id="link_Tabuleiro_Jogo"><path codeLine="61" d="M316.85,203.05 C327.96,222.46 333.8831,232.8087 345.0131,252.2287 " fill="none" id="Tabuleiro-to-Jogo" style="stroke:#181818;stroke-width:1;"/><polygon fill="#181818" points="350.98,262.64,351.467,255.4454,345.0131,252.2287,344.5261,259.4233,350.98,262.64" style="stroke:#181818;stroke-width:1;"/></g><!--link JogoController to TabuleiroView--><g id="link_JogoController_TabuleiroView"><path codeLine="62" d="M826.09,186.63 C883.65,227.75 956.02,279.45 1001.41,311.87 " fill="none" id="JogoController-TabuleiroView" style="stroke:#181818;stroke-width:1;"/></g><!--link JogoController to JogoView--><g id="link_JogoController_JogoView"><path codeLine="63" d="M733.82,186.63 C731.93,224.32 729.6,270.9 727.98,303.38 " fill="none" id="JogoController-JogoView" style="stroke:#181818;stroke-width:1;"/></g><!--link JogoController to Jogo--><g id="link_JogoController_Jogo"><path codeLine="64" d="M638.66,186.63 C601.49,210.68 558.73,238.35 519.61,263.66 " fill="none" id="JogoController-Jogo" style="stroke:#181818;stroke-width:1;"/></g><!--link JogoController to Main--><g id="link_JogoController_Main"><path codeLine="65" d="M897.78,122 C909.47,122 921.17,122 932.86,122 " fill="none" id="JogoController-Main" style="stroke:#181818;stroke-width:1;"/></g><!--SRC=[VLHDRzim3BtdL-ZejFCVyAr8kiC00mKM52s276X7yRXPea4fNhQX_tsIvLZ-sdn9H3wHxptIRg3y0PKKYiwo5dysmZrb3SQ80nJNMY9J7_LFsiWIJ2PUtC_nT3njXipZ04zcc6tM4fuZK54hsISJr5WYlMK2jVqamkczFrrGlSM_8RhDH45KIz2n6XKsL7jMoQs_yEkEzl48TMtnWYNm2nc3hKIp1mKcSS0fmm7uYfOO8LbhF81okEsWiLS6CnJsDno53lsn6Pdg6OtzB8apKNu3Zg50AtQCBHkcO1umUCo4-QJD5wecO_jE5Po9d-mLwdc_ahJroPnQL59RCf5x1x3toMPn9rQo1zMC0P5sDrZWmvKrBSs-e8OQV_ypF_Zy6TLU3g3nF3usJdpJBtABykVw7h_6J5TPth10te5nEx2cSViVSzThvL8Rnq4bLjwiA_NLCkfg8ObbAGl9pzeodBif1k1IZ9yDKrrBdaZo37Rpr7tGbFjNEUj0AsFopBEfATFh0N0NEPfZJTJifKyiffJsaeOTIe8Y8OF65Ob1IGweU_xfJ5OsEmScZqAvAmbmPOwdkSEkRFngFQHf-034K9e-15jc1Zhar91bVl1ZFRK8Tyh-0W00]--></g></svg>