<svg xmlns="http://www.w3.org/2000/svg" contentStyleType="text/css" data-diagram-type="CLASS" height="1218px"
     preserveAspectRatio="none" style="width:863px;height:1218px;background:#FFFFFF;" version="1.1"
     viewBox="0 0 863 1218" width="863px" zoomAndPan="magnify"><defs/><g><!--cluster model--><g id="cluster_model"><path d="M29.5,6.2734 L85.9531,6.2734 A3.75,3.75 0 0 1 88.4531,8.7734 L95.4531,30.8984 L574.5,30.8984 A2.5,2.5 0 0 1 577,33.3984 L577,740.7734 A2.5,2.5 0 0 1 574.5,743.2734 L29.5,743.2734 A2.5,2.5 0 0 1 27,740.7734 L27,8.7734 A2.5,2.5 0 0 1 29.5,6.2734 " fill="none" style="stroke:#C0C0C0;stroke-width:1.5;"/><line style="stroke:#C0C0C0;stroke-width:1.5;" x1="27" x2="95.4531" y1="30.8984" y2="30.8984"/><text fill="#000000" font-family="sans-serif" font-size="16" font-weight="bold" lengthAdjust="spacing" textLength="55.4531" x="31" y="23.125">model</text></g><!--cluster controller--><g id="cluster_controller"><path d="M8.5,811.2734 L97.6094,811.2734 A3.75,3.75 0 0 1 100.1094,813.7734 L107.1094,835.8984 L853.5,835.8984 A2.5,2.5 0 0 1 856,838.3984 L856,1002.8934 A2.5,2.5 0 0 1 853.5,1005.3934 L8.5,1005.3934 A2.5,2.5 0 0 1 6,1002.8934 L6,813.7734 A2.5,2.5 0 0 1 8.5,811.2734 " fill="none" style="stroke:#C0C0C0;stroke-width:1.5;"/><line style="stroke:#C0C0C0;stroke-width:1.5;" x1="6" x2="107.1094" y1="835.8984" y2="835.8984"/><text fill="#000000" font-family="sans-serif" font-size="16" font-weight="bold" lengthAdjust="spacing" textLength="88.1094" x="10" y="828.125">controller</text></g><!--cluster view--><g id="cluster_view"><path d="M99.5,1073.3934 L142.0469,1073.3934 A3.75,3.75 0 0 1 144.5469,1075.8934 L151.5469,1098.0184 L803.5,1098.0184 A2.5,2.5 0 0 1 806,1100.5184 L806,1209.1434 A2.5,2.5 0 0 1 803.5,1211.6434 L99.5,1211.6434 A2.5,2.5 0 0 1 97,1209.1434 L97,1075.8934 A2.5,2.5 0 0 1 99.5,1073.3934 " fill="none" style="stroke:#C0C0C0;stroke-width:1.5;"/><line style="stroke:#C0C0C0;stroke-width:1.5;" x1="97" x2="151.5469" y1="1098.0184" y2="1098.0184"/><text fill="#000000" font-family="sans-serif" font-size="16" font-weight="bold" lengthAdjust="spacing" textLength="41.5469" x="101" y="1090.245">view</text></g><!--class Tabuleiro--><g id="elem_Tabuleiro"><rect codeLine="6" fill="#F1F1F1" height="159.75" id="Tabuleiro" rx="2.5" ry="2.5" style="stroke:#181818;stroke-width:0.5;" width="518.5078" x="42.75" y="567.5234"/><ellipse cx="260.2656" cy="583.5234" fill="#ADD1B2" rx="11" ry="11" style="stroke:#181818;stroke-width:1;"/><path d="M262.7188,589.1797 Q262.1719,589.4609 261.5625,589.6016 Q260.9688,589.7578 260.2969,589.7578 Q257.9375,589.7578 256.6875,588.1953 Q255.4531,586.6328 255.4531,583.6953 Q255.4531,580.7578 256.6875,579.2109 Q257.9375,577.6484 260.2969,577.6484 Q260.9688,577.6484 261.5781,577.7891 Q262.1875,577.9297 262.7188,578.2109 L262.7188,580.7734 Q262.125,580.2266 261.5625,579.9766 Q261,579.7109 260.4063,579.7109 Q259.1406,579.7109 258.5,580.7266 Q257.8594,581.7266 257.8594,583.6953 Q257.8594,585.6641 258.5,586.6797 Q259.1406,587.6797 260.4063,587.6797 Q261,587.6797 261.5625,587.4297 Q262.125,587.1641 262.7188,586.6172 L262.7188,589.1797 Z " fill="#000000"/><text fill="#000000" font-family="sans-serif" font-size="16" lengthAdjust="spacing" textLength="74.9766" x="280.7656" y="589.0625">Tabuleiro</text><line style="stroke:#181818;stroke-width:0.5;" x1="43.75" x2="560.2578" y1="599.5234" y2="599.5234"/><rect fill="none" height="6" style="stroke:#C82930;stroke-width:1;" width="6" x="50.75" y="611.3359"/><text fill="#000000" font-family="sans-serif" font-size="16" lengthAdjust="spacing" textLength="120.4766" x="62.75" y="618.375">pecas: Peca[][]</text><line style="stroke:#181818;stroke-width:0.5;" x1="43.75" x2="560.2578" y1="626.1484" y2="626.1484"/><ellipse cx="53.75" cy="640.9609" fill="#84BE84" rx="3" ry="3" style="stroke:#038048;stroke-width:1;"/><text fill="#000000" font-family="sans-serif" font-size="16" lengthAdjust="spacing" textLength="257.625" x="62.75" y="645">getPeca(posicao: Posicao): Peca</text><ellipse cx="53.75" cy="659.5859" fill="#84BE84" rx="3" ry="3" style="stroke:#038048;stroke-width:1;"/><text fill="#000000" font-family="sans-serif" font-size="16" lengthAdjust="spacing" textLength="370.2109" x="62.75" y="663.625">setPeca(posicao: Posicao, comum: Peca): void</text><ellipse cx="53.75" cy="678.2109" fill="#84BE84" rx="3" ry="3" style="stroke:#038048;stroke-width:1;"/><text fill="#000000" font-family="sans-serif" font-size="16" lengthAdjust="spacing" textLength="492.5078" x="62.75" y="682.25">verificarMovimento(posicao: Posicao, comum: Peca): boolean</text><ellipse cx="53.75" cy="696.8359" fill="#84BE84" rx="3" ry="3" style="stroke:#038048;stroke-width:1;"/><text fill="#000000" font-family="sans-serif" font-size="16" lengthAdjust="spacing" textLength="348.6563" x="62.75" y="700.875">verificarCaptura(posicao: Posicao): boolean</text><ellipse cx="53.75" cy="715.4609" fill="#84BE84" rx="3" ry="3" style="stroke:#038048;stroke-width:1;"/><text fill="#000000" font-family="sans-serif" font-size="16" lengthAdjust="spacing" textLength="275.7656" x="62.75" y="719.5">verificarVitoria(cor: char): boolean</text></g><!--class Posicao--><g id="elem_Posicao"><rect codeLine="16" fill="#F1F1F1" height="85.25" id="Posicao" rx="2.5" ry="2.5" style="stroke:#181818;stroke-width:0.5;" width="92.6094" x="152.7" y="80.5234"/><ellipse cx="167.7" cy="96.5234" fill="#ADD1B2" rx="11" ry="11" style="stroke:#181818;stroke-width:1;"/><path d="M170.1531,102.1797 Q169.6063,102.4609 168.9969,102.6016 Q168.4031,102.7578 167.7313,102.7578 Q165.3719,102.7578 164.1219,101.1953 Q162.8875,99.6328 162.8875,96.6953 Q162.8875,93.7578 164.1219,92.2109 Q165.3719,90.6484 167.7313,90.6484 Q168.4031,90.6484 169.0125,90.7891 Q169.6219,90.9297 170.1531,91.2109 L170.1531,93.7734 Q169.5594,93.2266 168.9969,92.9766 Q168.4344,92.7109 167.8406,92.7109 Q166.575,92.7109 165.9344,93.7266 Q165.2938,94.7266 165.2938,96.6953 Q165.2938,98.6641 165.9344,99.6797 Q166.575,100.6797 167.8406,100.6797 Q168.4344,100.6797 168.9969,100.4297 Q169.5594,100.1641 170.1531,99.6172 L170.1531,102.1797 Z " fill="#000000"/><text fill="#000000" font-family="sans-serif" font-size="16" lengthAdjust="spacing" textLength="60.6094" x="181.7" y="102.0625">Posicao</text><line style="stroke:#181818;stroke-width:0.5;" x1="153.7" x2="244.3094" y1="112.5234" y2="112.5234"/><rect fill="none" height="6" style="stroke:#C82930;stroke-width:1;" width="6" x="160.7" y="124.3359"/><text fill="#000000" font-family="sans-serif" font-size="16" lengthAdjust="spacing" textLength="40.8047" x="172.7" y="131.375">x: int</text><rect fill="none" height="6" style="stroke:#C82930;stroke-width:1;" width="6" x="160.7" y="142.9609"/><text fill="#000000" font-family="sans-serif" font-size="16" lengthAdjust="spacing" textLength="40.8047" x="172.7" y="150">y: int</text><line style="stroke:#181818;stroke-width:0.5;" x1="153.7" x2="244.3094" y1="157.7734" y2="157.7734"/></g><!--class Peca--><g id="elem_Peca"><rect codeLine="21" fill="#F1F1F1" height="122.5" id="Peca" rx="2.5" ry="2.5" style="stroke:#181818;stroke-width:0.5;" width="243.9609" x="62.02" y="324.0234"/><ellipse cx="160.7036" cy="340.0234" fill="#ADD1B2" rx="11" ry="11" style="stroke:#181818;stroke-width:1;"/><path d="M163.1567,345.6797 Q162.6098,345.9609 162.0005,346.1016 Q161.4067,346.2578 160.7348,346.2578 Q158.3755,346.2578 157.1255,344.6953 Q155.8911,343.1328 155.8911,340.1953 Q155.8911,337.2578 157.1255,335.7109 Q158.3755,334.1484 160.7348,334.1484 Q161.4067,334.1484 162.0161,334.2891 Q162.6255,334.4297 163.1567,334.7109 L163.1567,337.2734 Q162.563,336.7266 162.0005,336.4766 Q161.438,336.2109 160.8442,336.2109 Q159.5786,336.2109 158.938,337.2266 Q158.2973,338.2266 158.2973,340.1953 Q158.2973,342.1641 158.938,343.1797 Q159.5786,344.1797 160.8442,344.1797 Q161.438,344.1797 162.0005,343.9297 Q162.563,343.6641 163.1567,343.1172 L163.1567,345.6797 Z " fill="#000000"/><text fill="#000000" font-family="sans-serif" font-size="16" lengthAdjust="spacing" textLength="38.0938" x="181.2036" y="345.5625">Peca</text><line style="stroke:#181818;stroke-width:0.5;" x1="63.02" x2="304.9809" y1="356.0234" y2="356.0234"/><rect fill="none" height="6" style="stroke:#C82930;stroke-width:1;" width="6" x="70.02" y="367.8359"/><text fill="#000000" font-family="sans-serif" font-size="16" lengthAdjust="spacing" textLength="70.9609" x="82.02" y="374.875">cor: char</text><rect fill="none" height="6" style="stroke:#C82930;stroke-width:1;" width="6" x="70.02" y="386.4609"/><text fill="#000000" font-family="sans-serif" font-size="16" lengthAdjust="spacing" textLength="134.7422" x="82.02" y="393.5">isDama: boolean</text><rect fill="none" height="6" style="stroke:#C82930;stroke-width:1;" width="6" x="70.02" y="405.0859"/><text fill="#000000" font-family="sans-serif" font-size="16" lengthAdjust="spacing" textLength="132.2031" x="82.02" y="412.125">posicao: Posicao</text><line style="stroke:#181818;stroke-width:0.5;" x1="63.02" x2="304.9809" y1="419.8984" y2="419.8984"/><ellipse cx="73.02" cy="434.7109" fill="#84BE84" rx="3" ry="3" style="stroke:#038048;stroke-width:1;"/><text fill="#000000" font-family="sans-serif" font-size="16" lengthAdjust="spacing" textLength="217.9609" x="82.02" y="438.75">promoverParaDama(): void</text></g><!--class Jogo--><g id="elem_Jogo"><rect codeLine="29" fill="#F1F1F1" height="159.75" id="Jogo" rx="2.5" ry="2.5" style="stroke:#181818;stroke-width:0.5;" width="276.3438" x="284.83" y="43.2734"/><ellipse cx="401.5253" cy="59.2734" fill="#ADD1B2" rx="11" ry="11" style="stroke:#181818;stroke-width:1;"/><path d="M403.9784,64.9297 Q403.4316,65.2109 402.8222,65.3516 Q402.2284,65.5078 401.5566,65.5078 Q399.1972,65.5078 397.9472,63.9453 Q396.7128,62.3828 396.7128,59.4453 Q396.7128,56.5078 397.9472,54.9609 Q399.1972,53.3984 401.5566,53.3984 Q402.2284,53.3984 402.8378,53.5391 Q403.4472,53.6797 403.9784,53.9609 L403.9784,56.5234 Q403.3847,55.9766 402.8222,55.7266 Q402.2597,55.4609 401.6659,55.4609 Q400.4003,55.4609 399.7597,56.4766 Q399.1191,57.4766 399.1191,59.4453 Q399.1191,61.4141 399.7597,62.4297 Q400.4003,63.4297 401.6659,63.4297 Q402.2597,63.4297 402.8222,63.1797 Q403.3847,62.9141 403.9784,62.3672 L403.9784,64.9297 Z " fill="#000000"/><text fill="#000000" font-family="sans-serif" font-size="16" lengthAdjust="spacing" textLength="34.4531" x="422.0253" y="64.8125">Jogo</text><line style="stroke:#181818;stroke-width:0.5;" x1="285.83" x2="560.1737" y1="75.2734" y2="75.2734"/><rect fill="none" height="6" style="stroke:#C82930;stroke-width:1;" width="6" x="292.83" y="87.0859"/><text fill="#000000" font-family="sans-serif" font-size="16" lengthAdjust="spacing" textLength="148.125" x="304.83" y="94.125">jogadorAtual: char</text><rect fill="none" height="6" style="stroke:#C82930;stroke-width:1;" width="6" x="292.83" y="105.7109"/><text fill="#000000" font-family="sans-serif" font-size="16" lengthAdjust="spacing" textLength="200.1406" x="304.83" y="112.75">contadorMovimentos: int</text><line style="stroke:#181818;stroke-width:0.5;" x1="285.83" x2="560.1737" y1="120.5234" y2="120.5234"/><ellipse cx="295.83" cy="135.3359" fill="#84BE84" rx="3" ry="3" style="stroke:#038048;stroke-width:1;"/><text fill="#000000" font-family="sans-serif" font-size="16" lengthAdjust="spacing" textLength="151.8984" x="304.83" y="139.375">iniciarTurno(): void</text><ellipse cx="295.83" cy="153.9609" fill="#84BE84" rx="3" ry="3" style="stroke:#038048;stroke-width:1;"/><text fill="#000000" font-family="sans-serif" font-size="16" lengthAdjust="spacing" textLength="166.9375" x="304.83" y="158">finalizarTurno(): void</text><ellipse cx="295.83" cy="172.5859" fill="#84BE84" rx="3" ry="3" style="stroke:#038048;stroke-width:1;"/><text fill="#000000" font-family="sans-serif" font-size="16" lengthAdjust="spacing" textLength="250.3438" x="304.83" y="176.625">verificarFimDeTurno(): boolean</text><ellipse cx="295.83" cy="191.2109" fill="#84BE84" rx="3" ry="3" style="stroke:#038048;stroke-width:1;"/><text fill="#000000" font-family="sans-serif" font-size="16" lengthAdjust="spacing" textLength="214.2969" x="304.83" y="195.25">verificarEmpate(): boolean</text></g><!--class JogoController--><g id="elem_JogoController"><rect codeLine="41" fill="#F1F1F1" height="141.125" id="JogoController" rx="2.5" ry="2.5" style="stroke:#181818;stroke-width:0.5;" width="362.9297" x="477.54" y="848.2734"/><ellipse cx="598.0009" cy="864.2734" fill="#ADD1B2" rx="11" ry="11" style="stroke:#181818;stroke-width:1;"/><path d="M600.4541,869.9297 Q599.9072,870.2109 599.2978,870.3516 Q598.7041,870.5078 598.0322,870.5078 Q595.6728,870.5078 594.4228,868.9453 Q593.1884,867.3828 593.1884,864.4453 Q593.1884,861.5078 594.4228,859.9609 Q595.6728,858.3984 598.0322,858.3984 Q598.7041,858.3984 599.3134,858.5391 Q599.9228,858.6797 600.4541,858.9609 L600.4541,861.5234 Q599.8603,860.9766 599.2978,860.7266 Q598.7353,860.4609 598.1416,860.4609 Q596.8759,860.4609 596.2353,861.4766 Q595.5947,862.4766 595.5947,864.4453 Q595.5947,866.4141 596.2353,867.4297 Q596.8759,868.4297 598.1416,868.4297 Q598.7353,868.4297 599.2978,868.1797 Q599.8603,867.9141 600.4541,867.3672 L600.4541,869.9297 Z " fill="#000000"/><text fill="#000000" font-family="sans-serif" font-size="16" lengthAdjust="spacing" textLength="113.5078" x="618.5009" y="869.8125">JogoController</text><line style="stroke:#181818;stroke-width:0.5;" x1="478.54" x2="839.4697" y1="880.2734" y2="880.2734"/><rect fill="none" height="6" style="stroke:#C82930;stroke-width:1;" width="6" x="485.54" y="892.0859"/><text fill="#000000" font-family="sans-serif" font-size="16" lengthAdjust="spacing" textLength="127.1484" x="497.54" y="899.125">jogoModel: Jogo</text><rect fill="none" height="6" style="stroke:#C82930;stroke-width:1;" width="6" x="485.54" y="910.7109"/><text fill="#000000" font-family="sans-serif" font-size="16" lengthAdjust="spacing" textLength="155.75" x="497.54" y="917.75">jogoView: JogoView</text><line style="stroke:#181818;stroke-width:0.5;" x1="478.54" x2="839.4697" y1="925.5234" y2="925.5234"/><ellipse cx="488.54" cy="940.3359" fill="#84BE84" rx="3" ry="3" style="stroke:#038048;stroke-width:1;"/><text fill="#000000" font-family="sans-serif" font-size="16" lengthAdjust="spacing" textLength="336.9297" x="497.54" y="944.375">receberMovimento(String entrada): String</text><ellipse cx="488.54" cy="958.9609" fill="#84BE84" rx="3" ry="3" style="stroke:#038048;stroke-width:1;"/><text fill="#000000" font-family="sans-serif" font-size="16" lengthAdjust="spacing" textLength="169.0547" x="497.54" y="963">proximoTurno(): void</text><ellipse cx="488.54" cy="977.5859" fill="#84BE84" rx="3" ry="3" style="stroke:#038048;stroke-width:1;"/><text fill="#000000" font-family="sans-serif" font-size="16" lengthAdjust="spacing" textLength="97.5938" x="497.54" y="981.625">jogar(): void</text></g><!--class TabuleiroController--><g id="elem_TabuleiroController"><rect codeLine="50" fill="#F1F1F1" height="85.25" id="TabuleiroController" rx="2.5" ry="2.5" style="stroke:#181818;stroke-width:0.5;" width="420.8906" x="21.55" y="876.2034"/><ellipse cx="150.7297" cy="892.2034" fill="#ADD1B2" rx="11" ry="11" style="stroke:#181818;stroke-width:1;"/><path d="M153.1828,897.8597 Q152.6359,898.1409 152.0266,898.2816 Q151.4328,898.4378 150.7609,898.4378 Q148.4016,898.4378 147.1516,896.8753 Q145.9172,895.3128 145.9172,892.3753 Q145.9172,889.4378 147.1516,887.8909 Q148.4016,886.3284 150.7609,886.3284 Q151.4328,886.3284 152.0422,886.4691 Q152.6516,886.6097 153.1828,886.8909 L153.1828,889.4534 Q152.5891,888.9066 152.0266,888.6566 Q151.4641,888.3909 150.8703,888.3909 Q149.6047,888.3909 148.9641,889.4066 Q148.3234,890.4066 148.3234,892.3753 Q148.3234,894.3441 148.9641,895.3597 Q149.6047,896.3597 150.8703,896.3597 Q151.4641,896.3597 152.0266,896.1097 Q152.5891,895.8441 153.1828,895.2972 L153.1828,897.8597 Z " fill="#000000"/><text fill="#000000" font-family="sans-serif" font-size="16" lengthAdjust="spacing" textLength="154.0313" x="171.2297" y="897.7425">TabuleiroController</text><line style="stroke:#181818;stroke-width:0.5;" x1="22.55" x2="441.4406" y1="908.2034" y2="908.2034"/><line style="stroke:#181818;stroke-width:0.5;" x1="22.55" x2="441.4406" y1="916.2034" y2="916.2034"/><ellipse cx="32.55" cy="931.0159" fill="#84BE84" rx="3" ry="3" style="stroke:#038048;stroke-width:1;"/><text fill="#000000" font-family="sans-serif" font-size="16" lengthAdjust="spacing" textLength="394.8906" x="41.55" y="935.055">moverPeca(comum: Peca, destino: Posicao): void</text><ellipse cx="32.55" cy="949.6409" fill="#84BE84" rx="3" ry="3" style="stroke:#038048;stroke-width:1;"/><text fill="#000000" font-family="sans-serif" font-size="16" lengthAdjust="spacing" textLength="176.7344" x="41.55" y="953.68">exibirTabuleiro(): void</text></g><!--class TabuleiroView--><g id="elem_TabuleiroView"><rect codeLine="57" fill="#F1F1F1" height="66.625" id="TabuleiroView" rx="2.5" ry="2.5" style="stroke:#181818;stroke-width:0.5;" width="326.75" x="112.63" y="1119.7034"/><ellipse cx="215.1066" cy="1135.7034" fill="#ADD1B2" rx="11" ry="11" style="stroke:#181818;stroke-width:1;"/><path d="M217.5597,1141.3597 Q217.0128,1141.6409 216.4034,1141.7816 Q215.8097,1141.9378 215.1378,1141.9378 Q212.7784,1141.9378 211.5284,1140.3753 Q210.2941,1138.8128 210.2941,1135.8753 Q210.2941,1132.9378 211.5284,1131.3909 Q212.7784,1129.8284 215.1378,1129.8284 Q215.8097,1129.8284 216.4191,1129.9691 Q217.0284,1130.1097 217.5597,1130.3909 L217.5597,1132.9534 Q216.9659,1132.4066 216.4034,1132.1566 Q215.8409,1131.8909 215.2472,1131.8909 Q213.9816,1131.8909 213.3409,1132.9066 Q212.7003,1133.9066 212.7003,1135.8753 Q212.7003,1137.8441 213.3409,1138.8597 Q213.9816,1139.8597 215.2472,1139.8597 Q215.8409,1139.8597 216.4034,1139.6097 Q216.9659,1139.3441 217.5597,1138.7972 L217.5597,1141.3597 Z " fill="#000000"/><text fill="#000000" font-family="sans-serif" font-size="16" lengthAdjust="spacing" textLength="113.2969" x="235.6066" y="1141.2425">TabuleiroView</text><line style="stroke:#181818;stroke-width:0.5;" x1="113.63" x2="438.38" y1="1151.7034" y2="1151.7034"/><line style="stroke:#181818;stroke-width:0.5;" x1="113.63" x2="438.38" y1="1159.7034" y2="1159.7034"/><ellipse cx="123.63" cy="1174.5159" fill="#84BE84" rx="3" ry="3" style="stroke:#038048;stroke-width:1;"/><text fill="#000000" font-family="sans-serif" font-size="16" lengthAdjust="spacing" textLength="300.75" x="132.63" y="1178.555">exibirCasas(tabuleiro: Tabuleiro) void</text></g><!--class JogoView--><g id="elem_JogoView"><rect codeLine="61" fill="#F1F1F1" height="85.25" id="JogoView" rx="2.5" ry="2.5" style="stroke:#181818;stroke-width:0.5;" width="315.1484" x="474.43" y="1110.3934"/><ellipse cx="591.3675" cy="1126.3934" fill="#ADD1B2" rx="11" ry="11" style="stroke:#181818;stroke-width:1;"/><path d="M593.8206,1132.0497 Q593.2738,1132.3309 592.6644,1132.4716 Q592.0706,1132.6278 591.3988,1132.6278 Q589.0394,1132.6278 587.7894,1131.0653 Q586.555,1129.5028 586.555,1126.5653 Q586.555,1123.6278 587.7894,1122.0809 Q589.0394,1120.5184 591.3988,1120.5184 Q592.0706,1120.5184 592.68,1120.6591 Q593.2894,1120.7997 593.8206,1121.0809 L593.8206,1123.6434 Q593.2269,1123.0966 592.6644,1122.8466 Q592.1019,1122.5809 591.5081,1122.5809 Q590.2425,1122.5809 589.6019,1123.5966 Q588.9613,1124.5966 588.9613,1126.5653 Q588.9613,1128.5341 589.6019,1129.5497 Q590.2425,1130.5497 591.5081,1130.5497 Q592.1019,1130.5497 592.6644,1130.2997 Q593.2269,1130.0341 593.8206,1129.4872 L593.8206,1132.0497 Z " fill="#000000"/><text fill="#000000" font-family="sans-serif" font-size="16" lengthAdjust="spacing" textLength="72.7734" x="611.8675" y="1131.9325">JogoView</text><line style="stroke:#181818;stroke-width:0.5;" x1="475.43" x2="788.5784" y1="1142.3934" y2="1142.3934"/><line style="stroke:#181818;stroke-width:0.5;" x1="475.43" x2="788.5784" y1="1150.3934" y2="1150.3934"/><ellipse cx="485.43" cy="1165.2059" fill="#84BE84" rx="3" ry="3" style="stroke:#038048;stroke-width:1;"/><text fill="#000000" font-family="sans-serif" font-size="16" lengthAdjust="spacing" textLength="289.1484" x="494.43" y="1169.245">exibirMensagem(texto: String): void</text><ellipse cx="485.43" cy="1183.8309" fill="#84BE84" rx="3" ry="3" style="stroke:#038048;stroke-width:1;"/><text fill="#000000" font-family="sans-serif" font-size="16" lengthAdjust="spacing" textLength="195.2188" x="494.43" y="1187.87">receberEntrada(): String</text></g><!--link Posicao to Peca--><g id="link_Posicao_Peca"><path codeLine="67" d="M196.57,166.2234 C194.11,208.9334 190.959,263.4832 188.179,311.8232 " fill="none" id="Posicao-to-Peca" style="stroke:#181818;stroke-width:1;"/><polygon fill="#181818" points="187.49,323.8034,191.8279,318.043,188.179,311.8232,183.8411,317.5837,187.49,323.8034" style="stroke:#181818;stroke-width:1;"/><text fill="#000000" font-family="sans-serif" font-size="16" font-weight="bold" lengthAdjust="spacing" textLength="34.4219" x="159.7465" y="188.7694">1..1</text><text fill="#000000" font-family="sans-serif" font-size="16" font-weight="bold" lengthAdjust="spacing" textLength="34.4219" x="151.8691" y="312.1046">1..1</text></g><!--link Peca to Tabuleiro--><g id="link_Peca_Tabuleiro"><path codeLine="68" d="M211.52,446.9234 C227.79,482.8034 243.6329,517.7252 261.1829,556.4152 " fill="none" id="Peca-to-Tabuleiro" style="stroke:#181818;stroke-width:1;"/><polygon fill="#181818" points="266.14,567.3434,267.3042,560.2269,261.1829,556.4152,260.0187,563.5317,266.14,567.3434" style="stroke:#181818;stroke-width:1;"/><text fill="#000000" font-family="sans-serif" font-size="16" font-weight="bold" lengthAdjust="spacing" textLength="31.6563" x="181.8705" y="469.5365">0..*</text><text fill="#000000" font-family="sans-serif" font-size="16" font-weight="bold" lengthAdjust="spacing" textLength="34.4219" x="227.1215" y="555.7367">1..1</text></g><!--link Posicao to Tabuleiro--><g id="link_Posicao_Tabuleiro"><path codeLine="69" d="M234.75,165.9934 C264.93,204.2734 305.88,263.9334 323,324.0234 C345.98,404.6534 336.1282,495.1683 322.9782,561.4183 " fill="none" id="Posicao-to-Tabuleiro" style="stroke:#181818;stroke-width:1;stroke-dasharray:7.0,7.0;"/><polygon fill="#181818" points="321.81,567.3034,327.4857,559.2544,322.7835,562.3991,319.6388,557.6969,321.81,567.3034" style="stroke:#181818;stroke-width:1;"/></g><!--link Tabuleiro to TabuleiroController--><g id="link_Tabuleiro_TabuleiroController"><path codeLine="70" d="M281.47,727.4134 C268.84,776.0134 253.17,836.3534 242.89,875.9234 " fill="none" id="Tabuleiro-TabuleiroController" style="stroke:#181818;stroke-width:1;"/><text fill="#000000" font-family="sans-serif" font-size="16" font-weight="bold" lengthAdjust="spacing" textLength="34.4219" x="244.1459" y="750.2207">1..1</text><text fill="#000000" font-family="sans-serif" font-size="16" font-weight="bold" lengthAdjust="spacing" textLength="34.4219" x="207.9506" y="864.5524">1..1</text></g><!--link Jogo to JogoController--><g id="link_Jogo_JogoController"><path codeLine="71" d="M535.43,203.4134 C586.63,249.3634 636,312.3334 636,384.2734 C636,384.2734 636,384.2734 636,648.3934 C636,716.3534 643.35,793.6034 649.74,847.9034 " fill="none" id="Jogo-JogoController" style="stroke:#181818;stroke-width:1;"/><text fill="#000000" font-family="sans-serif" font-size="16" font-weight="bold" lengthAdjust="spacing" textLength="34.4219" x="509.649" y="225.9631">1..1</text><text fill="#000000" font-family="sans-serif" font-size="16" font-weight="bold" lengthAdjust="spacing" textLength="34.4219" x="613.0532" y="836.5442">1..1</text></g><!--link TabuleiroController to TabuleiroView--><g id="link_TabuleiroController_TabuleiroView"><path codeLine="72" d="M239.97,961.8734 C248.54,1007.0934 261.98,1078.0334 269.8,1119.2734 " fill="none" id="TabuleiroController-TabuleiroView" style="stroke:#181818;stroke-width:1;"/><text fill="#000000" font-family="sans-serif" font-size="16" font-weight="bold" lengthAdjust="spacing" textLength="34.4219" x="204.6754" y="984.415">1..1</text><text fill="#000000" font-family="sans-serif" font-size="16" font-weight="bold" lengthAdjust="spacing" textLength="34.4219" x="231.4168" y="1108.0368">1..1</text></g><!--link JogoController to JogoView--><g id="link_JogoController_JogoView"><path codeLine="73" d="M650.86,989.8134 C646.3,1029.0634 640.76,1076.7234 636.86,1110.1934 " fill="none" id="JogoController-JogoView" style="stroke:#181818;stroke-width:1;"/><text fill="#000000" font-family="sans-serif" font-size="16" font-weight="bold" lengthAdjust="spacing" textLength="34.4219" x="614.4835" y="1012.3176">1..1</text><text fill="#000000" font-family="sans-serif" font-size="16" font-weight="bold" lengthAdjust="spacing" textLength="34.4219" x="600.8836" y="1098.5132">1..1</text></g><!--SRC=[XLHDRwCm4BtpAwpiXNu4DPSzvB1IDsaFAqMAr2gNgeS1dEni3OF69asxwdzVEmGC1B9mm7ZUFC_Ccx5-mxm0XapSCzFx8-NcoNmeAM9IQQ0RwngIDzZ9dyIfv0KfOl5jSUVU5cWfjr0gSoJ1JobctuEWg1n5HgbKucyWx9Ceq5eyGrmgYKodNVTC2vc0dekr_Roylhm6ZULc9utR3GlIc01PJBMugj0Ug4U0joAXhCmgkFNQ4wRUQoyPjnR6AzfZ9dD3_oM8YPI4V81Z0OKfUJ3MSQSD6cA4C26UY-GtS0_z5RIATo9ib-um5vWR___X_xkkDlgsNtEUtqAzX0pEWvts4shfKp1bP9DPsrPmtc6xn9q0Vj6k4_WVsa5AV6zAKFr84jjBpjYeegki_BcOOuB0poNd59x9kiKS57wEsflgFsAsb0reNAM7h00ZmpDjldohkvYPb9BSwNUNzg9lgWj0ApSVyoEeQzYWVA_stQgLECj4nhBLhq-6CTy9ksP8NODM6ns93fZHI2cS33okMZEkWpdSLDgxkMiDoQr8fJQOToQWUweyO8pSaFVERrLrRxCVlZystjAYN8067PeQDFVugmjzESorahcsCMIXaGT3TM7FSZafyb0947OLE2Ppl0MZUdWdioYQJSHqEhskroU0kz3yKapkekXw2DZar6EEekZ72CHVk_xuUkaxDngG-qHm7D-BljrE3owp3b0vgQEElC4e-vXxBUO_]--></g></svg>
