<svg xmlns="http://www.w3.org/2000/svg" xmlns:xlink="http://www.w3.org/1999/xlink" contentStyleType="text/css" height="1219px" preserveAspectRatio="none" style="width:843px;height:1219px;background:#FFFFFF;" version="1.1" viewBox="0 0 843 1219" width="843px" zoomAndPan="magnify"><defs/><g><!--cluster model--><g id="cluster_model"><path d="M29.5,6.2734 L85.9531,6.2734 A3.75,3.75 0 0 1 88.4531,8.7734 L95.4531,30.8984 L554.5,30.8984 A2.5,2.5 0 0 1 557,33.3984 L557,741.7734 A2.5,2.5 0 0 1 554.5,744.2734 L29.5,744.2734 A2.5,2.5 0 0 1 27,741.7734 L27,8.7734 A2.5,2.5 0 0 1 29.5,6.2734 " fill="none" style="stroke:#C0C0C0;stroke-width:1.5;"/><line style="stroke:#C0C0C0;stroke-width:1.5;" x1="27" x2="95.4531" y1="30.8984" y2="30.8984"/><text fill="#000000" font-family="sans-serif" font-size="16" font-weight="bold" lengthAdjust="spacing" textLength="55.4531" x="31" y="23.125">model</text></g><!--cluster controller--><g id="cluster_controller"><path d="M8.5,812.2734 L97.6094,812.2734 A3.75,3.75 0 0 1 100.1094,814.7734 L107.1094,836.8984 L833.5,836.8984 A2.5,2.5 0 0 1 836,839.3984 L836,1003.7734 A2.5,2.5 0 0 1 833.5,1006.2734 L8.5,1006.2734 A2.5,2.5 0 0 1 6,1003.7734 L6,814.7734 A2.5,2.5 0 0 1 8.5,812.2734 " fill="none" style="stroke:#C0C0C0;stroke-width:1.5;"/><line style="stroke:#C0C0C0;stroke-width:1.5;" x1="6" x2="107.1094" y1="836.8984" y2="836.8984"/><text fill="#000000" font-family="sans-serif" font-size="16" font-weight="bold" lengthAdjust="spacing" textLength="88.1094" x="10" y="829.125">controller</text></g><!--cluster view--><g id="cluster_view"><path d="M83.5,1074.2734 L126.0469,1074.2734 A3.75,3.75 0 0 1 128.5469,1076.7734 L135.5469,1098.8984 L787.5,1098.8984 A2.5,2.5 0 0 1 790,1101.3984 L790,1209.7734 A2.5,2.5 0 0 1 787.5,1212.2734 L83.5,1212.2734 A2.5,2.5 0 0 1 81,1209.7734 L81,1076.7734 A2.5,2.5 0 0 1 83.5,1074.2734 " fill="none" style="stroke:#C0C0C0;stroke-width:1.5;"/><line style="stroke:#C0C0C0;stroke-width:1.5;" x1="81" x2="135.5469" y1="1098.8984" y2="1098.8984"/><text fill="#000000" font-family="sans-serif" font-size="16" font-weight="bold" lengthAdjust="spacing" textLength="41.5469" x="85" y="1091.125">view</text></g><!--class Tabuleiro--><g id="elem_Tabuleiro"><rect codeLine="6" fill="#F1F1F1" height="159.75" id="Tabuleiro" rx="2.5" ry="2.5" style="stroke:#181818;stroke-width:0.5;" width="497.2109" x="43.5" y="568.2734"/><ellipse cx="250.3672" cy="584.2734" fill="#ADD1B2" rx="11" ry="11" style="stroke:#181818;stroke-width:1;"/><path d="M252.8203,589.9297 Q252.2734,590.2109 251.6641,590.3516 Q251.0703,590.5078 250.3984,590.5078 Q248.0391,590.5078 246.7891,588.9453 Q245.5547,587.3828 245.5547,584.4453 Q245.5547,581.5078 246.7891,579.9609 Q248.0391,578.3984 250.3984,578.3984 Q251.0703,578.3984 251.6797,578.5391 Q252.2891,578.6797 252.8203,578.9609 L252.8203,581.5234 Q252.2266,580.9766 251.6641,580.7266 Q251.1016,580.4609 250.5078,580.4609 Q249.2422,580.4609 248.6016,581.4766 Q247.9609,582.4766 247.9609,584.4453 Q247.9609,586.4141 248.6016,587.4297 Q249.2422,588.4297 250.5078,588.4297 Q251.1016,588.4297 251.6641,588.1797 Q252.2266,587.9141 252.8203,587.3672 L252.8203,589.9297 Z " fill="#000000"/><text fill="#000000" font-family="sans-serif" font-size="16" lengthAdjust="spacing" textLength="74.9766" x="270.8672" y="589.8125">Tabuleiro</text><line style="stroke:#181818;stroke-width:0.5;" x1="44.5" x2="539.7109" y1="600.2734" y2="600.2734"/><rect fill="none" height="6" style="stroke:#C82930;stroke-width:1;" width="6" x="51.5" y="612.0859"/><text fill="#000000" font-family="sans-serif" font-size="16" lengthAdjust="spacing" textLength="120.4766" x="63.5" y="619.125">pecas: Peca[][]</text><line style="stroke:#181818;stroke-width:0.5;" x1="44.5" x2="539.7109" y1="626.8984" y2="626.8984"/><ellipse cx="54.5" cy="641.7109" fill="#84BE84" rx="3" ry="3" style="stroke:#038048;stroke-width:1;"/><text fill="#000000" font-family="sans-serif" font-size="16" lengthAdjust="spacing" textLength="257.625" x="63.5" y="645.75">getPeca(posicao: Posicao): Peca</text><ellipse cx="54.5" cy="660.3359" fill="#84BE84" rx="3" ry="3" style="stroke:#038048;stroke-width:1;"/><text fill="#000000" font-family="sans-serif" font-size="16" lengthAdjust="spacing" textLength="348.9141" x="63.5" y="664.375">setPeca(posicao: Posicao, comum: Peca): void</text><ellipse cx="54.5" cy="678.9609" fill="#84BE84" rx="3" ry="3" style="stroke:#038048;stroke-width:1;"/><text fill="#000000" font-family="sans-serif" font-size="16" lengthAdjust="spacing" textLength="471.2109" x="63.5" y="683">verificarMovimento(posicao: Posicao, comum: Peca): boolean</text><ellipse cx="54.5" cy="697.5859" fill="#84BE84" rx="3" ry="3" style="stroke:#038048;stroke-width:1;"/><text fill="#000000" font-family="sans-serif" font-size="16" lengthAdjust="spacing" textLength="348.6563" x="63.5" y="701.625">verificarCaptura(posicao: Posicao): boolean</text><ellipse cx="54.5" cy="716.2109" fill="#84BE84" rx="3" ry="3" style="stroke:#038048;stroke-width:1;"/><text fill="#000000" font-family="sans-serif" font-size="16" lengthAdjust="spacing" textLength="275.7656" x="63.5" y="720.25">verificarVitoria(com.jogodedamas.cor: char): boolean</text></g><!--class Posicao--><g id="elem_Posicao"><rect codeLine="16" fill="#F1F1F1" height="85.25" id="Posicao" rx="2.5" ry="2.5" style="stroke:#181818;stroke-width:0.5;" width="92.6094" x="133.5" y="80.7734"/><ellipse cx="148.5" cy="96.7734" fill="#ADD1B2" rx="11" ry="11" style="stroke:#181818;stroke-width:1;"/><path d="M150.9531,102.4297 Q150.4063,102.7109 149.7969,102.8516 Q149.2031,103.0078 148.5313,103.0078 Q146.1719,103.0078 144.9219,101.4453 Q143.6875,99.8828 143.6875,96.9453 Q143.6875,94.0078 144.9219,92.4609 Q146.1719,90.8984 148.5313,90.8984 Q149.2031,90.8984 149.8125,91.0391 Q150.4219,91.1797 150.9531,91.4609 L150.9531,94.0234 Q150.3594,93.4766 149.7969,93.2266 Q149.2344,92.9609 148.6406,92.9609 Q147.375,92.9609 146.7344,93.9766 Q146.0938,94.9766 146.0938,96.9453 Q146.0938,98.9141 146.7344,99.9297 Q147.375,100.9297 148.6406,100.9297 Q149.2344,100.9297 149.7969,100.6797 Q150.3594,100.4141 150.9531,99.8672 L150.9531,102.4297 Z " fill="#000000"/><text fill="#000000" font-family="sans-serif" font-size="16" lengthAdjust="spacing" textLength="60.6094" x="162.5" y="102.3125">Posicao</text><line style="stroke:#181818;stroke-width:0.5;" x1="134.5" x2="225.1094" y1="112.7734" y2="112.7734"/><rect fill="none" height="6" style="stroke:#C82930;stroke-width:1;" width="6" x="141.5" y="124.5859"/><text fill="#000000" font-family="sans-serif" font-size="16" lengthAdjust="spacing" textLength="40.8047" x="153.5" y="131.625">x: int</text><rect fill="none" height="6" style="stroke:#C82930;stroke-width:1;" width="6" x="141.5" y="143.2109"/><text fill="#000000" font-family="sans-serif" font-size="16" lengthAdjust="spacing" textLength="40.8047" x="153.5" y="150.25">y: int</text><line style="stroke:#181818;stroke-width:0.5;" x1="134.5" x2="225.1094" y1="158.0234" y2="158.0234"/></g><!--class Peca--><g id="elem_Peca"><rect codeLine="21" fill="#F1F1F1" height="122.5" id="Peca" rx="2.5" ry="2.5" style="stroke:#181818;stroke-width:0.5;" width="243.9609" x="52" y="324.2734"/><ellipse cx="150.6836" cy="340.2734" fill="#ADD1B2" rx="11" ry="11" style="stroke:#181818;stroke-width:1;"/><path d="M153.1367,345.9297 Q152.5898,346.2109 151.9805,346.3516 Q151.3867,346.5078 150.7148,346.5078 Q148.3555,346.5078 147.1055,344.9453 Q145.8711,343.3828 145.8711,340.4453 Q145.8711,337.5078 147.1055,335.9609 Q148.3555,334.3984 150.7148,334.3984 Q151.3867,334.3984 151.9961,334.5391 Q152.6055,334.6797 153.1367,334.9609 L153.1367,337.5234 Q152.543,336.9766 151.9805,336.7266 Q151.418,336.4609 150.8242,336.4609 Q149.5586,336.4609 148.918,337.4766 Q148.2773,338.4766 148.2773,340.4453 Q148.2773,342.4141 148.918,343.4297 Q149.5586,344.4297 150.8242,344.4297 Q151.418,344.4297 151.9805,344.1797 Q152.543,343.9141 153.1367,343.3672 L153.1367,345.9297 Z " fill="#000000"/><text fill="#000000" font-family="sans-serif" font-size="16" lengthAdjust="spacing" textLength="38.0938" x="171.1836" y="345.8125">Peca</text><line style="stroke:#181818;stroke-width:0.5;" x1="53" x2="294.9609" y1="356.2734" y2="356.2734"/><rect fill="none" height="6" style="stroke:#C82930;stroke-width:1;" width="6" x="60" y="368.0859"/><text fill="#000000" font-family="sans-serif" font-size="16" lengthAdjust="spacing" textLength="70.9609" x="72" y="375.125">com.jogodedamas.cor: char</text><rect fill="none" height="6" style="stroke:#C82930;stroke-width:1;" width="6" x="60" y="386.7109"/><text fill="#000000" font-family="sans-serif" font-size="16" lengthAdjust="spacing" textLength="134.7422" x="72" y="393.75">isDama: boolean</text><rect fill="none" height="6" style="stroke:#C82930;stroke-width:1;" width="6" x="60" y="405.3359"/><text fill="#000000" font-family="sans-serif" font-size="16" lengthAdjust="spacing" textLength="132.2031" x="72" y="412.375">posicao: Posicao</text><line style="stroke:#181818;stroke-width:0.5;" x1="53" x2="294.9609" y1="420.1484" y2="420.1484"/><ellipse cx="63" cy="434.9609" fill="#84BE84" rx="3" ry="3" style="stroke:#038048;stroke-width:1;"/><text fill="#000000" font-family="sans-serif" font-size="16" lengthAdjust="spacing" textLength="217.9609" x="72" y="439">promoverParaDama(): void</text></g><!--class Jogo--><g id="elem_Jogo"><rect codeLine="29" fill="#F1F1F1" height="159.75" id="Jogo" rx="2.5" ry="2.5" style="stroke:#181818;stroke-width:0.5;" width="276.3438" x="265" y="43.2734"/><ellipse cx="381.6953" cy="59.2734" fill="#ADD1B2" rx="11" ry="11" style="stroke:#181818;stroke-width:1;"/><path d="M384.1484,64.9297 Q383.6016,65.2109 382.9922,65.3516 Q382.3984,65.5078 381.7266,65.5078 Q379.3672,65.5078 378.1172,63.9453 Q376.8828,62.3828 376.8828,59.4453 Q376.8828,56.5078 378.1172,54.9609 Q379.3672,53.3984 381.7266,53.3984 Q382.3984,53.3984 383.0078,53.5391 Q383.6172,53.6797 384.1484,53.9609 L384.1484,56.5234 Q383.5547,55.9766 382.9922,55.7266 Q382.4297,55.4609 381.8359,55.4609 Q380.5703,55.4609 379.9297,56.4766 Q379.2891,57.4766 379.2891,59.4453 Q379.2891,61.4141 379.9297,62.4297 Q380.5703,63.4297 381.8359,63.4297 Q382.4297,63.4297 382.9922,63.1797 Q383.5547,62.9141 384.1484,62.3672 L384.1484,64.9297 Z " fill="#000000"/><text fill="#000000" font-family="sans-serif" font-size="16" lengthAdjust="spacing" textLength="34.4531" x="402.1953" y="64.8125">Jogo</text><line style="stroke:#181818;stroke-width:0.5;" x1="266" x2="540.3438" y1="75.2734" y2="75.2734"/><rect fill="none" height="6" style="stroke:#C82930;stroke-width:1;" width="6" x="273" y="87.0859"/><text fill="#000000" font-family="sans-serif" font-size="16" lengthAdjust="spacing" textLength="148.125" x="285" y="94.125">jogadorAtual: char</text><rect fill="none" height="6" style="stroke:#C82930;stroke-width:1;" width="6" x="273" y="105.7109"/><text fill="#000000" font-family="sans-serif" font-size="16" lengthAdjust="spacing" textLength="200.1406" x="285" y="112.75">contadorMovimentos: int</text><line style="stroke:#181818;stroke-width:0.5;" x1="266" x2="540.3438" y1="120.5234" y2="120.5234"/><ellipse cx="276" cy="135.3359" fill="#84BE84" rx="3" ry="3" style="stroke:#038048;stroke-width:1;"/><text fill="#000000" font-family="sans-serif" font-size="16" lengthAdjust="spacing" textLength="151.8984" x="285" y="139.375">iniciarTurno(): void</text><ellipse cx="276" cy="153.9609" fill="#84BE84" rx="3" ry="3" style="stroke:#038048;stroke-width:1;"/><text fill="#000000" font-family="sans-serif" font-size="16" lengthAdjust="spacing" textLength="166.9375" x="285" y="158">finalizarTurno(): void</text><ellipse cx="276" cy="172.5859" fill="#84BE84" rx="3" ry="3" style="stroke:#038048;stroke-width:1;"/><text fill="#000000" font-family="sans-serif" font-size="16" lengthAdjust="spacing" textLength="250.3438" x="285" y="176.625">verificarFimDeTurno(): boolean</text><ellipse cx="276" cy="191.2109" fill="#84BE84" rx="3" ry="3" style="stroke:#038048;stroke-width:1;"/><text fill="#000000" font-family="sans-serif" font-size="16" lengthAdjust="spacing" textLength="214.2969" x="285" y="195.25">verificarEmpate(): boolean</text></g><!--class JogoController--><g id="elem_JogoController"><rect codeLine="41" fill="#F1F1F1" height="141.125" id="JogoController" rx="2.5" ry="2.5" style="stroke:#181818;stroke-width:0.5;" width="362.9297" x="457.5" y="849.2734"/><ellipse cx="577.9609" cy="865.2734" fill="#ADD1B2" rx="11" ry="11" style="stroke:#181818;stroke-width:1;"/><path d="M580.4141,870.9297 Q579.8672,871.2109 579.2578,871.3516 Q578.6641,871.5078 577.9922,871.5078 Q575.6328,871.5078 574.3828,869.9453 Q573.1484,868.3828 573.1484,865.4453 Q573.1484,862.5078 574.3828,860.9609 Q575.6328,859.3984 577.9922,859.3984 Q578.6641,859.3984 579.2734,859.5391 Q579.8828,859.6797 580.4141,859.9609 L580.4141,862.5234 Q579.8203,861.9766 579.2578,861.7266 Q578.6953,861.4609 578.1016,861.4609 Q576.8359,861.4609 576.1953,862.4766 Q575.5547,863.4766 575.5547,865.4453 Q575.5547,867.4141 576.1953,868.4297 Q576.8359,869.4297 578.1016,869.4297 Q578.6953,869.4297 579.2578,869.1797 Q579.8203,868.9141 580.4141,868.3672 L580.4141,870.9297 Z " fill="#000000"/><text fill="#000000" font-family="sans-serif" font-size="16" lengthAdjust="spacing" textLength="113.5078" x="598.4609" y="870.8125">JogoController</text><line style="stroke:#181818;stroke-width:0.5;" x1="458.5" x2="819.4297" y1="881.2734" y2="881.2734"/><rect fill="none" height="6" style="stroke:#C82930;stroke-width:1;" width="6" x="465.5" y="893.0859"/><text fill="#000000" font-family="sans-serif" font-size="16" lengthAdjust="spacing" textLength="127.1484" x="477.5" y="900.125">jogoDeDamasModel: Jogo</text><rect fill="none" height="6" style="stroke:#C82930;stroke-width:1;" width="6" x="465.5" y="911.7109"/><text fill="#000000" font-family="sans-serif" font-size="16" lengthAdjust="spacing" textLength="155.75" x="477.5" y="918.75">jogoDeDamasView: JogoView</text><line style="stroke:#181818;stroke-width:0.5;" x1="458.5" x2="819.4297" y1="926.5234" y2="926.5234"/><ellipse cx="468.5" cy="941.3359" fill="#84BE84" rx="3" ry="3" style="stroke:#038048;stroke-width:1;"/><text fill="#000000" font-family="sans-serif" font-size="16" lengthAdjust="spacing" textLength="336.9297" x="477.5" y="945.375">receberMovimento(String entrada): String</text><ellipse cx="468.5" cy="959.9609" fill="#84BE84" rx="3" ry="3" style="stroke:#038048;stroke-width:1;"/><text fill="#000000" font-family="sans-serif" font-size="16" lengthAdjust="spacing" textLength="169.0547" x="477.5" y="964">proximoTurno(): void</text><ellipse cx="468.5" cy="978.5859" fill="#84BE84" rx="3" ry="3" style="stroke:#038048;stroke-width:1;"/><text fill="#000000" font-family="sans-serif" font-size="16" lengthAdjust="spacing" textLength="97.5938" x="477.5" y="982.625">jogar(): void</text></g><!--class TabuleiroController--><g id="elem_TabuleiroController"><rect codeLine="50" fill="#F1F1F1" height="85.25" id="TabuleiroController" rx="2.5" ry="2.5" style="stroke:#181818;stroke-width:0.5;" width="399.5938" x="22" y="877.2734"/><ellipse cx="140.5313" cy="893.2734" fill="#ADD1B2" rx="11" ry="11" style="stroke:#181818;stroke-width:1;"/><path d="M142.9844,898.9297 Q142.4375,899.2109 141.8281,899.3516 Q141.2344,899.5078 140.5625,899.5078 Q138.2031,899.5078 136.9531,897.9453 Q135.7188,896.3828 135.7188,893.4453 Q135.7188,890.5078 136.9531,888.9609 Q138.2031,887.3984 140.5625,887.3984 Q141.2344,887.3984 141.8438,887.5391 Q142.4531,887.6797 142.9844,887.9609 L142.9844,890.5234 Q142.3906,889.9766 141.8281,889.7266 Q141.2656,889.4609 140.6719,889.4609 Q139.4063,889.4609 138.7656,890.4766 Q138.125,891.4766 138.125,893.4453 Q138.125,895.4141 138.7656,896.4297 Q139.4063,897.4297 140.6719,897.4297 Q141.2656,897.4297 141.8281,897.1797 Q142.3906,896.9141 142.9844,896.3672 L142.9844,898.9297 Z " fill="#000000"/><text fill="#000000" font-family="sans-serif" font-size="16" lengthAdjust="spacing" textLength="154.0313" x="161.0313" y="898.8125">TabuleiroController</text><line style="stroke:#181818;stroke-width:0.5;" x1="23" x2="420.5938" y1="909.2734" y2="909.2734"/><line style="stroke:#181818;stroke-width:0.5;" x1="23" x2="420.5938" y1="917.2734" y2="917.2734"/><ellipse cx="33" cy="932.0859" fill="#84BE84" rx="3" ry="3" style="stroke:#038048;stroke-width:1;"/><text fill="#000000" font-family="sans-serif" font-size="16" lengthAdjust="spacing" textLength="373.5938" x="42" y="936.125">moverPeca(comum: Peca, destino: Posicao): void</text><ellipse cx="33" cy="950.7109" fill="#84BE84" rx="3" ry="3" style="stroke:#038048;stroke-width:1;"/><text fill="#000000" font-family="sans-serif" font-size="16" lengthAdjust="spacing" textLength="176.7344" x="42" y="954.75">exibirTabuleiro(): void</text></g><!--class TabuleiroView--><g id="elem_TabuleiroView"><rect codeLine="57" fill="#F1F1F1" height="66.625" id="TabuleiroView" rx="2.5" ry="2.5" style="stroke:#181818;stroke-width:0.5;" width="326.75" x="96.5" y="1120.2734"/><ellipse cx="198.9766" cy="1136.2734" fill="#ADD1B2" rx="11" ry="11" style="stroke:#181818;stroke-width:1;"/><path d="M201.4297,1141.9297 Q200.8828,1142.2109 200.2734,1142.3516 Q199.6797,1142.5078 199.0078,1142.5078 Q196.6484,1142.5078 195.3984,1140.9453 Q194.1641,1139.3828 194.1641,1136.4453 Q194.1641,1133.5078 195.3984,1131.9609 Q196.6484,1130.3984 199.0078,1130.3984 Q199.6797,1130.3984 200.2891,1130.5391 Q200.8984,1130.6797 201.4297,1130.9609 L201.4297,1133.5234 Q200.8359,1132.9766 200.2734,1132.7266 Q199.7109,1132.4609 199.1172,1132.4609 Q197.8516,1132.4609 197.2109,1133.4766 Q196.5703,1134.4766 196.5703,1136.4453 Q196.5703,1138.4141 197.2109,1139.4297 Q197.8516,1140.4297 199.1172,1140.4297 Q199.7109,1140.4297 200.2734,1140.1797 Q200.8359,1139.9141 201.4297,1139.3672 L201.4297,1141.9297 Z " fill="#000000"/><text fill="#000000" font-family="sans-serif" font-size="16" lengthAdjust="spacing" textLength="113.2969" x="219.4766" y="1141.8125">TabuleiroView</text><line style="stroke:#181818;stroke-width:0.5;" x1="97.5" x2="422.25" y1="1152.2734" y2="1152.2734"/><line style="stroke:#181818;stroke-width:0.5;" x1="97.5" x2="422.25" y1="1160.2734" y2="1160.2734"/><ellipse cx="107.5" cy="1175.0859" fill="#84BE84" rx="3" ry="3" style="stroke:#038048;stroke-width:1;"/><text fill="#000000" font-family="sans-serif" font-size="16" lengthAdjust="spacing" textLength="300.75" x="116.5" y="1179.125">exibirCasas(tabuleiro: Tabuleiro) void</text></g><!--class JogoView--><g id="elem_JogoView"><rect codeLine="61" fill="#F1F1F1" height="85.25" id="JogoView" rx="2.5" ry="2.5" style="stroke:#181818;stroke-width:0.5;" width="315.1484" x="458.5" y="1111.2734"/><ellipse cx="575.4375" cy="1127.2734" fill="#ADD1B2" rx="11" ry="11" style="stroke:#181818;stroke-width:1;"/><path d="M577.8906,1132.9297 Q577.3438,1133.2109 576.7344,1133.3516 Q576.1406,1133.5078 575.4688,1133.5078 Q573.1094,1133.5078 571.8594,1131.9453 Q570.625,1130.3828 570.625,1127.4453 Q570.625,1124.5078 571.8594,1122.9609 Q573.1094,1121.3984 575.4688,1121.3984 Q576.1406,1121.3984 576.75,1121.5391 Q577.3594,1121.6797 577.8906,1121.9609 L577.8906,1124.5234 Q577.2969,1123.9766 576.7344,1123.7266 Q576.1719,1123.4609 575.5781,1123.4609 Q574.3125,1123.4609 573.6719,1124.4766 Q573.0313,1125.4766 573.0313,1127.4453 Q573.0313,1129.4141 573.6719,1130.4297 Q574.3125,1131.4297 575.5781,1131.4297 Q576.1719,1131.4297 576.7344,1131.1797 Q577.2969,1130.9141 577.8906,1130.3672 L577.8906,1132.9297 Z " fill="#000000"/><text fill="#000000" font-family="sans-serif" font-size="16" lengthAdjust="spacing" textLength="72.7734" x="595.9375" y="1132.8125">JogoView</text><line style="stroke:#181818;stroke-width:0.5;" x1="459.5" x2="772.6484" y1="1143.2734" y2="1143.2734"/><line style="stroke:#181818;stroke-width:0.5;" x1="459.5" x2="772.6484" y1="1151.2734" y2="1151.2734"/><ellipse cx="469.5" cy="1166.0859" fill="#84BE84" rx="3" ry="3" style="stroke:#038048;stroke-width:1;"/><text fill="#000000" font-family="sans-serif" font-size="16" lengthAdjust="spacing" textLength="289.1484" x="478.5" y="1170.125">exibirMensagem(texto: String): void</text><ellipse cx="469.5" cy="1184.7109" fill="#84BE84" rx="3" ry="3" style="stroke:#038048;stroke-width:1;"/><text fill="#000000" font-family="sans-serif" font-size="16" lengthAdjust="spacing" textLength="195.2188" x="478.5" y="1188.75">receberEntrada(): String</text></g><!--link Posicao to Peca--><g id="link_Posicao_Peca"><path codeLine="67" d="M179.04,165.8434 C178.06,208.5034 176.7964,263.3366 175.6764,311.9466 " fill="none" id="Posicao-to-Peca" style="stroke:#181818;stroke-width:1;"/><polygon fill="#181818" points="175.4,323.9434,179.5371,318.0372,175.6764,311.9466,171.5393,317.8529,175.4,323.9434" style="stroke:#181818;stroke-width:1;"/><text fill="#000000" font-family="sans-serif" font-size="16" font-weight="bold" lengthAdjust="spacing" textLength="34.4219" x="142.2424" y="188.9439">1..1</text><text fill="#000000" font-family="sans-serif" font-size="16" font-weight="bold" lengthAdjust="spacing" textLength="34.4219" x="139.6229" y="312.6703">1..1</text></g><!--link Peca to Tabuleiro--><g id="link_Peca_Tabuleiro"><path codeLine="68" d="M201.52,447.5234 C217.79,483.4534 233.6392,518.4323 251.1892,557.1823 " fill="none" id="Peca-to-Tabuleiro" style="stroke:#181818;stroke-width:1;"/><polygon fill="#181818" points="256.14,568.1134,257.3083,560.9976,251.1892,557.1823,250.0209,564.2981,256.14,568.1134" style="stroke:#181818;stroke-width:1;"/><text fill="#000000" font-family="sans-serif" font-size="16" font-weight="bold" lengthAdjust="spacing" textLength="31.6563" x="171.7954" y="469.7291">0..*</text><text fill="#000000" font-family="sans-serif" font-size="16" font-weight="bold" lengthAdjust="spacing" textLength="34.4219" x="217.1118" y="556.5086">1..1</text></g><!--link Posicao to Tabuleiro--><g id="link_Posicao_Tabuleiro"><path codeLine="69" d="M212.35,166.1634 C248.62,214.1434 303.73,290.4834 314,324.2734 C338.48,404.8034 328.0291,495.7707 314.1091,562.2807 " fill="none" id="Posicao-to-Tabuleiro" style="stroke:#181818;stroke-width:1;stroke-dasharray:7.0,7.0;"/><polygon fill="#181818" points="312.88,568.1534,318.6389,560.1637,313.9043,563.2595,310.8085,558.5249,312.88,568.1534" style="stroke:#181818;stroke-width:1;"/></g><!--link Tabuleiro to TabuleiroController--><g id="link_Tabuleiro_TabuleiroController"><path codeLine="70" d="M271.47,728.3134 C258.8,777.0834 243.07,837.6634 232.79,877.2334 " fill="none" id="Tabuleiro-TabuleiroController" style="stroke:#181818;stroke-width:1;"/><text fill="#000000" font-family="sans-serif" font-size="16" font-weight="bold" lengthAdjust="spacing" textLength="34.4219" x="234.2538" y="750.8545">1..1</text><text fill="#000000" font-family="sans-serif" font-size="16" font-weight="bold" lengthAdjust="spacing" textLength="34.4219" x="197.83" y="865.5797">1..1</text></g><!--link Jogo to JogoController--><g id="link_Jogo_JogoController"><path codeLine="71" d="M515.11,203.4034 C566.43,249.4634 616,312.6234 616,384.7734 C616,384.7734 616,384.7734 616,649.2734 C616,717.3634 623.38,794.7834 629.78,849.1134 " fill="none" id="Jogo-JogoController" style="stroke:#181818;stroke-width:1;"/><text fill="#000000" font-family="sans-serif" font-size="16" font-weight="bold" lengthAdjust="spacing" textLength="34.4219" x="489.2869" y="225.9522">1..1</text><text fill="#000000" font-family="sans-serif" font-size="16" font-weight="bold" lengthAdjust="spacing" textLength="34.4219" x="592.9391" y="837.2795">1..1</text></g><!--link TabuleiroController to TabuleiroView--><g id="link_TabuleiroController_TabuleiroView"><path codeLine="72" d="M228.84,962.5134 C236.23,1007.6534 247.86,1078.6734 254.63,1119.9834 " fill="none" id="TabuleiroController-TabuleiroView" style="stroke:#181818;stroke-width:1;"/><text fill="#000000" font-family="sans-serif" font-size="16" font-weight="bold" lengthAdjust="spacing" textLength="34.4219" x="193.3477" y="985.3164">1..1</text><text fill="#000000" font-family="sans-serif" font-size="16" font-weight="bold" lengthAdjust="spacing" textLength="34.4219" x="216.292" y="1108.5092">1..1</text></g><!--link JogoController to JogoView--><g id="link_JogoController_JogoView"><path codeLine="73" d="M632.1,990.3834 C628.2,1029.7534 623.45,1077.6634 620.12,1111.2034 " fill="none" id="JogoController-JogoView" style="stroke:#181818;stroke-width:1;"/><text fill="#000000" font-family="sans-serif" font-size="16" font-weight="bold" lengthAdjust="spacing" textLength="34.4219" x="595.6607" y="1013.4706">1..1</text><text fill="#000000" font-family="sans-serif" font-size="16" font-weight="bold" lengthAdjust="spacing" textLength="34.4219" x="584.0094" y="1099.5448">1..1</text></g><!--SRC=[XLHDRwCm4BtpAwpiXNu4DPSzvB1IDsaFAqMAr2gNgWS3a-ni3OF6JffsrV- -DWGC1B9mm7ZUFC_Ccx5-mxoGB3DnpqplZvIR9_EXGCIaqa0trhLCtkGEVXAdm0jInEBRuiwzBT0IjdAlJ4c2do1ctuEWg1n5HYaeyJSGzacKr5eyotYl09bEk-wP5f18FHTh-tbvVNaD6ilD3epR3GlIc4Yoc6fnLQ4zK8y0RuKZhz3MwK2OUgS3C6ujYbTqm0noG__pZuaKo7o0OY4Bi-V1ICUTDcY8KOO9yLmaloNtq5z1gtGdmdRXZdE1kV7_7_w_wsgZR_irv_ajr4kPoVDWf_s4MkeKJ1dPPDQs4PntsAvm9u1VjEi4_eTsCYM-Dtkf-f4ajfESiH55LrdvSp7712K_xpcdy4pLBUPIuUUelQd-8sPBQ43ZAZraXJGGdcdpvHlTnSoa572dsrtQYxwfBW2jt7JCIr3Ni45uh_RTgfKuGm8njDhroJ3cEs7NB5FNeDL6Hw8ZPZHI2YS3ZwlM3EjW3ZULzkNKDJDoArBG1lFE07GFXIF6o0rtx_XMKGys-U7BO-CjBSg5r5A7fWRDFVxgGbiESwqWrpQ6B3HmD5JNzIoNao0FLVt3hW1bCkKL6DMpEvb5qMmYfjFfTRq-0TnjvfTYSXT5rqF09gSUSnH5FqOW_ixrnzTBtxZHWDedWd9wB_fs6psup3f0vQIEEl86e-nZxhMO_m00]--></g></svg>
