<svg xmlns="http://www.w3.org/2000/svg" xmlns:xlink="http://www.w3.org/1999/xlink" contentStyleType="text/css" height="1497px" preserveAspectRatio="none" style="width:452px;height:1497px;background:#FFFFFF;" version="1.1" viewBox="0 0 452 1497" width="452px" zoomAndPan="magnify"><defs/><g><ellipse cx="194.9238" cy="20" fill="#222222" rx="10" ry="10" style="stroke:#222222;stroke-width:1;"/><rect fill="#F1F1F1" height="33.9688" rx="12.5" ry="12.5" style="stroke:#181818;stroke-width:0.5;" width="235.5195" x="77.1641" y="50"/><text fill="#000000" font-family="sans-serif" font-size="12" lengthAdjust="spacing" textLength="215.5195" x="87.1641" y="71.1387">definir posi&#231;&#245;es iniciais do tabuleiro</text><rect fill="#F1F1F1" height="33.9688" rx="12.5" ry="12.5" style="stroke:#181818;stroke-width:0.5;" width="190.2676" x="99.79" y="147.9688"/><text fill="#000000" font-family="sans-serif" font-size="12" lengthAdjust="spacing" textLength="170.2676" x="109.79" y="169.1074">seleciona o pr&#243;ximo jogador</text><rect fill="#F1F1F1" height="33.9688" rx="12.5" ry="12.5" style="stroke:#181818;stroke-width:0.5;" width="111.125" x="139.3613" y="201.9375"/><text fill="#000000" font-family="sans-serif" font-size="12" lengthAdjust="spacing" textLength="91.125" x="149.3613" y="223.0762">exibir tabuleiro</text><rect fill="#F1F1F1" height="33.9688" rx="12.5" ry="12.5" style="stroke:#181818;stroke-width:0.5;" width="272.7207" x="58.5635" y="299.9063"/><text fill="#000000" font-family="sans-serif" font-size="12" lengthAdjust="spacing" textLength="252.7207" x="68.5635" y="321.0449">o jogador atual deve selecionar uma pe&#231;a</text><rect fill="#F1F1F1" height="33.9688" rx="12.5" ry="12.5" style="stroke:#181818;stroke-width:0.5;" width="255.377" x="67.2354" y="361.375"/><text fill="#000000" font-family="sans-serif" font-size="12" lengthAdjust="spacing" textLength="235.377" x="77.2354" y="382.5137">analisar se a pe&#231;a selecionada &#233; valida</text><polygon fill="#F1F1F1" points="194.9238,255.9063,206.9238,267.9063,194.9238,279.9063,182.9238,267.9063,194.9238,255.9063" style="stroke:#181818;stroke-width:0.5;"/><polygon fill="#F1F1F1" points="146.127,415.3438,243.7207,415.3438,255.7207,427.3438,243.7207,439.3438,146.127,439.3438,134.127,427.3438,146.127,415.3438" style="stroke:#181818;stroke-width:0.5;"/><text fill="#000000" font-family="sans-serif" font-size="12" lengthAdjust="spacing" textLength="97.5938" x="146.127" y="431.498">a pe&#231;a &#233; valida?</text><text fill="#000000" font-family="sans-serif" font-size="12" lengthAdjust="spacing" textLength="22.3008" x="255.7207" y="424.5137">n&#227;o</text><rect fill="#F1F1F1" height="33.9688" rx="12.5" ry="12.5" style="stroke:#181818;stroke-width:0.5;" width="367.8477" x="11" y="547.3438"/><text fill="#000000" font-family="sans-serif" font-size="12" lengthAdjust="spacing" textLength="347.8477" x="21" y="568.4824">o jogador atual deve escolher a nova posi&#231;&#227;o para a pe&#231;a</text><rect fill="#F1F1F1" height="33.9688" rx="12.5" ry="12.5" style="stroke:#181818;stroke-width:0.5;" width="272.2637" x="58.792" y="608.8125"/><text fill="#000000" font-family="sans-serif" font-size="12" lengthAdjust="spacing" textLength="252.2637" x="68.792" y="629.9512">analisar se a posi&#231;&#227;o selecionada &#233; valida</text><polygon fill="#F1F1F1" points="194.9238,503.3438,206.9238,515.3438,194.9238,527.3438,182.9238,515.3438,194.9238,503.3438" style="stroke:#181818;stroke-width:0.5;"/><polygon fill="#F1F1F1" points="148.8662,662.7813,240.9814,662.7813,252.9814,674.7813,240.9814,686.7813,148.8662,686.7813,136.8662,674.7813,148.8662,662.7813" style="stroke:#181818;stroke-width:0.5;"/><text fill="#000000" font-family="sans-serif" font-size="12" lengthAdjust="spacing" textLength="92.1152" x="148.8662" y="678.9355">posi&#231;&#227;o valida?</text><text fill="#000000" font-family="sans-serif" font-size="12" lengthAdjust="spacing" textLength="22.3008" x="252.9814" y="671.9512">n&#227;o</text><rect fill="#F1F1F1" height="33.9688" rx="12.5" ry="12.5" style="stroke:#181818;stroke-width:0.5;" width="242.9023" x="73.4727" y="706.7813"/><text fill="#000000" font-family="sans-serif" font-size="12" lengthAdjust="spacing" textLength="222.9023" x="83.4727" y="727.9199">analisar se uma captura foi realizada</text><rect fill="#F1F1F1" height="33.9688" rx="12.5" ry="12.5" style="stroke:#181818;stroke-width:0.5;" width="179.6504" x="105.0986" y="809.7344"/><text fill="#000000" font-family="sans-serif" font-size="12" lengthAdjust="spacing" textLength="159.6504" x="115.0986" y="830.873">remover a pe&#231;a capturada</text><polygon fill="#F1F1F1" points="114.6797,760.75,275.168,760.75,287.168,772.75,275.168,784.75,114.6797,784.75,102.6797,772.75,114.6797,760.75" style="stroke:#181818;stroke-width:0.5;"/><text fill="#000000" font-family="sans-serif" font-size="12" lengthAdjust="spacing" textLength="21.2754" x="198.9238" y="795.8887">sim</text><text fill="#000000" font-family="sans-serif" font-size="12" lengthAdjust="spacing" textLength="160.4883" x="114.6797" y="776.9043">uma captura foi realizada?</text><polygon fill="#F1F1F1" points="194.9238,863.7031,206.9238,875.7031,194.9238,887.7031,182.9238,875.7031,194.9238,863.7031" style="stroke:#181818;stroke-width:0.5;"/><rect fill="#F1F1F1" height="33.9688" rx="12.5" ry="12.5" style="stroke:#181818;stroke-width:0.5;" width="172.8184" x="108.5146" y="907.7031"/><text fill="#000000" font-family="sans-serif" font-size="12" lengthAdjust="spacing" textLength="152.8184" x="118.5146" y="928.8418">move a pe&#231;a selecionada</text><rect fill="#F1F1F1" height="33.9688" rx="12.5" ry="12.5" style="stroke:#181818;stroke-width:0.5;" width="111.125" x="139.3613" y="961.6719"/><text fill="#000000" font-family="sans-serif" font-size="12" lengthAdjust="spacing" textLength="91.125" x="149.3613" y="982.8105">exibir tabuleiro</text><rect fill="#F1F1F1" height="33.9688" rx="12.5" ry="12.5" style="stroke:#181818;stroke-width:0.5;" width="283.0684" x="53.3896" y="1015.6406"/><text fill="#000000" font-family="sans-serif" font-size="12" lengthAdjust="spacing" textLength="263.0684" x="63.3896" y="1036.7793">analisar se &#233; poss&#237;vel realizar outra captura</text><polygon fill="#F1F1F1" points="194.9238,459.3438,206.9238,471.3438,194.9238,483.3438,182.9238,471.3438,194.9238,459.3438" style="stroke:#181818;stroke-width:0.5;"/><polygon fill="#F1F1F1" points="94.5967,1069.6094,295.251,1069.6094,307.251,1081.6094,295.251,1093.6094,94.5967,1093.6094,82.5967,1081.6094,94.5967,1069.6094" style="stroke:#181818;stroke-width:0.5;"/><text fill="#000000" font-family="sans-serif" font-size="12" lengthAdjust="spacing" textLength="200.6543" x="94.5967" y="1085.7637">&#233; poss&#237;vel realizar outra captura?</text><text fill="#000000" font-family="sans-serif" font-size="12" lengthAdjust="spacing" textLength="21.2754" x="307.251" y="1078.7793">sim</text><rect fill="#F1F1F1" height="33.9688" rx="12.5" ry="12.5" style="stroke:#181818;stroke-width:0.5;" width="366.1484" x="11.8496" y="1113.6094"/><text fill="#000000" font-family="sans-serif" font-size="12" lengthAdjust="spacing" textLength="346.1484" x="21.8496" y="1134.748">verificar se a pe&#231;a selecionada pode se tornar uma dama</text><rect fill="#F1F1F1" height="33.9688" rx="12.5" ry="12.5" style="stroke:#181818;stroke-width:0.5;" width="258.002" x="65.9229" y="1216.5625"/><text fill="#000000" font-family="sans-serif" font-size="12" lengthAdjust="spacing" textLength="238.002" x="75.9229" y="1237.7012">converter a pe&#231;a selecionada em dama</text><polygon fill="#F1F1F1" points="53.8945,1167.5781,335.9531,1167.5781,347.9531,1179.5781,335.9531,1191.5781,53.8945,1191.5781,41.8945,1179.5781,53.8945,1167.5781" style="stroke:#181818;stroke-width:0.5;"/><text fill="#000000" font-family="sans-serif" font-size="12" lengthAdjust="spacing" textLength="21.2754" x="198.9238" y="1202.7168">sim</text><text fill="#000000" font-family="sans-serif" font-size="12" lengthAdjust="spacing" textLength="282.0586" x="53.8945" y="1183.7324">a pe&#231;a selecionada pode se tornar uma dama?</text><polygon fill="#F1F1F1" points="194.9238,1270.5313,206.9238,1282.5313,194.9238,1294.5313,182.9238,1282.5313,194.9238,1270.5313" style="stroke:#181818;stroke-width:0.5;"/><rect fill="#F1F1F1" height="33.9688" rx="12.5" ry="12.5" style="stroke:#181818;stroke-width:0.5;" width="268.584" x="60.6318" y="1314.5313"/><text fill="#000000" font-family="sans-serif" font-size="12" lengthAdjust="spacing" textLength="248.584" x="70.6318" y="1335.6699">verificar se houve uma vitoria ou empate</text><polygon fill="#F1F1F1" points="194.9238,103.9688,206.9238,115.9688,194.9238,127.9688,182.9238,115.9688,194.9238,103.9688" style="stroke:#181818;stroke-width:0.5;"/><polygon fill="#F1F1F1" points="146.8271,1368.5,243.0205,1368.5,255.0205,1380.5,243.0205,1392.5,146.8271,1392.5,134.8271,1380.5,146.8271,1368.5" style="stroke:#181818;stroke-width:0.5;"/><text fill="#000000" font-family="sans-serif" font-size="12" lengthAdjust="spacing" textLength="96.1934" x="146.8271" y="1384.6543">&#233; o fim do jogo?</text><text fill="#000000" font-family="sans-serif" font-size="12" lengthAdjust="spacing" textLength="22.3008" x="255.0205" y="1377.6699">n&#227;o</text><rect fill="#F1F1F1" height="33.9688" rx="12.5" ry="12.5" style="stroke:#181818;stroke-width:0.5;" width="180.3594" x="104.7441" y="1412.5"/><text fill="#000000" font-family="sans-serif" font-size="12" lengthAdjust="spacing" textLength="160.3594" x="114.7441" y="1433.6387">exibe o nome do vencedor</text><ellipse cx="194.9238" cy="1476.4688" fill="none" rx="10" ry="10" style="stroke:#222222;stroke-width:1.5;"/><line style="stroke:#222222;stroke-width:2.5;" x1="188.7366" x2="201.111" y1="1470.2816" y2="1482.6559"/><line style="stroke:#222222;stroke-width:2.5;" x1="201.111" x2="188.7366" y1="1470.2816" y2="1482.6559"/><line style="stroke:#181818;stroke-width:1;" x1="194.9238" x2="194.9238" y1="30" y2="50"/><polygon fill="#181818" points="190.9238,40,194.9238,50,198.9238,40,194.9238,44" style="stroke:#181818;stroke-width:1;"/><line style="stroke:#181818;stroke-width:1;" x1="194.9238" x2="194.9238" y1="181.9375" y2="201.9375"/><polygon fill="#181818" points="190.9238,191.9375,194.9238,201.9375,198.9238,191.9375,194.9238,195.9375" style="stroke:#181818;stroke-width:1;"/><line style="stroke:#181818;stroke-width:1;" x1="194.9238" x2="194.9238" y1="333.875" y2="361.375"/><polygon fill="#181818" points="190.9238,351.375,194.9238,361.375,198.9238,351.375,194.9238,355.375" style="stroke:#181818;stroke-width:1;"/><line style="stroke:#181818;stroke-width:1;" x1="194.9238" x2="194.9238" y1="279.9063" y2="299.9063"/><polygon fill="#181818" points="190.9238,289.9063,194.9238,299.9063,198.9238,289.9063,194.9238,293.9063" style="stroke:#181818;stroke-width:1;"/><line style="stroke:#181818;stroke-width:1;" x1="255.7207" x2="343.2842" y1="427.3438" y2="427.3438"/><polygon fill="#181818" points="339.2842,353.875,343.2842,343.875,347.2842,353.875,343.2842,349.875" style="stroke:#181818;stroke-width:1;"/><line style="stroke:#181818;stroke-width:1;" x1="343.2842" x2="343.2842" y1="267.9063" y2="427.3438"/><line style="stroke:#181818;stroke-width:1;" x1="343.2842" x2="206.9238" y1="267.9063" y2="267.9063"/><polygon fill="#181818" points="216.9238,263.9063,206.9238,267.9063,216.9238,271.9063,212.9238,267.9063" style="stroke:#181818;stroke-width:1;"/><line style="stroke:#181818;stroke-width:1;" x1="194.9238" x2="194.9238" y1="395.3438" y2="415.3438"/><polygon fill="#181818" points="190.9238,405.3438,194.9238,415.3438,198.9238,405.3438,194.9238,409.3438" style="stroke:#181818;stroke-width:1;"/><line style="stroke:#181818;stroke-width:1;" x1="194.9238" x2="194.9238" y1="235.9063" y2="255.9063"/><polygon fill="#181818" points="190.9238,245.9063,194.9238,255.9063,198.9238,245.9063,194.9238,249.9063" style="stroke:#181818;stroke-width:1;"/><line style="stroke:#181818;stroke-width:1;" x1="194.9238" x2="194.9238" y1="581.3125" y2="608.8125"/><polygon fill="#181818" points="190.9238,598.8125,194.9238,608.8125,198.9238,598.8125,194.9238,602.8125" style="stroke:#181818;stroke-width:1;"/><line style="stroke:#181818;stroke-width:1;" x1="194.9238" x2="194.9238" y1="527.3438" y2="547.3438"/><polygon fill="#181818" points="190.9238,537.3438,194.9238,547.3438,198.9238,537.3438,194.9238,541.3438" style="stroke:#181818;stroke-width:1;"/><line style="stroke:#181818;stroke-width:1;" x1="252.9814" x2="390.8477" y1="674.7813" y2="674.7813"/><polygon fill="#181818" points="386.8477,601.3125,390.8477,591.3125,394.8477,601.3125,390.8477,597.3125" style="stroke:#181818;stroke-width:1;"/><line style="stroke:#181818;stroke-width:1;" x1="390.8477" x2="390.8477" y1="515.3438" y2="674.7813"/><line style="stroke:#181818;stroke-width:1;" x1="390.8477" x2="206.9238" y1="515.3438" y2="515.3438"/><polygon fill="#181818" points="216.9238,511.3438,206.9238,515.3438,216.9238,519.3438,212.9238,515.3438" style="stroke:#181818;stroke-width:1;"/><line style="stroke:#181818;stroke-width:1;" x1="194.9238" x2="194.9238" y1="642.7813" y2="662.7813"/><polygon fill="#181818" points="190.9238,652.7813,194.9238,662.7813,198.9238,652.7813,194.9238,656.7813" style="stroke:#181818;stroke-width:1;"/><line style="stroke:#181818;stroke-width:1;" x1="194.9238" x2="194.9238" y1="686.7813" y2="706.7813"/><polygon fill="#181818" points="190.9238,696.7813,194.9238,706.7813,198.9238,696.7813,194.9238,700.7813" style="stroke:#181818;stroke-width:1;"/><line style="stroke:#181818;stroke-width:1;" x1="194.9238" x2="194.9238" y1="784.75" y2="809.7344"/><polygon fill="#181818" points="190.9238,799.7344,194.9238,809.7344,198.9238,799.7344,194.9238,803.7344" style="stroke:#181818;stroke-width:1;"/><line style="stroke:#181818;stroke-width:1;" x1="287.168" x2="299.168" y1="772.75" y2="772.75"/><polygon fill="#181818" points="295.168,816.7188,299.168,826.7188,303.168,816.7188,299.168,820.7188" style="stroke:#181818;stroke-width:1;"/><line style="stroke:#181818;stroke-width:1;" x1="299.168" x2="299.168" y1="772.75" y2="875.7031"/><line style="stroke:#181818;stroke-width:1;" x1="299.168" x2="206.9238" y1="875.7031" y2="875.7031"/><polygon fill="#181818" points="216.9238,871.7031,206.9238,875.7031,216.9238,879.7031,212.9238,875.7031" style="stroke:#181818;stroke-width:1;"/><line style="stroke:#181818;stroke-width:1;" x1="194.9238" x2="194.9238" y1="843.7031" y2="863.7031"/><polygon fill="#181818" points="190.9238,853.7031,194.9238,863.7031,198.9238,853.7031,194.9238,857.7031" style="stroke:#181818;stroke-width:1;"/><line style="stroke:#181818;stroke-width:1;" x1="194.9238" x2="194.9238" y1="740.75" y2="760.75"/><polygon fill="#181818" points="190.9238,750.75,194.9238,760.75,198.9238,750.75,194.9238,754.75" style="stroke:#181818;stroke-width:1;"/><line style="stroke:#181818;stroke-width:1;" x1="194.9238" x2="194.9238" y1="887.7031" y2="907.7031"/><polygon fill="#181818" points="190.9238,897.7031,194.9238,907.7031,198.9238,897.7031,194.9238,901.7031" style="stroke:#181818;stroke-width:1;"/><line style="stroke:#181818;stroke-width:1;" x1="194.9238" x2="194.9238" y1="941.6719" y2="961.6719"/><polygon fill="#181818" points="190.9238,951.6719,194.9238,961.6719,198.9238,951.6719,194.9238,955.6719" style="stroke:#181818;stroke-width:1;"/><line style="stroke:#181818;stroke-width:1;" x1="194.9238" x2="194.9238" y1="995.6406" y2="1015.6406"/><polygon fill="#181818" points="190.9238,1005.6406,194.9238,1015.6406,198.9238,1005.6406,194.9238,1009.6406" style="stroke:#181818;stroke-width:1;"/><line style="stroke:#181818;stroke-width:1;" x1="194.9238" x2="194.9238" y1="483.3438" y2="503.3438"/><polygon fill="#181818" points="190.9238,493.3438,194.9238,503.3438,198.9238,493.3438,194.9238,497.3438" style="stroke:#181818;stroke-width:1;"/><line style="stroke:#181818;stroke-width:1;" x1="307.251" x2="408.8477" y1="1081.6094" y2="1081.6094"/><polygon fill="#181818" points="404.8477,764.7188,408.8477,754.7188,412.8477,764.7188,408.8477,760.7188" style="stroke:#181818;stroke-width:1;"/><line style="stroke:#181818;stroke-width:1;" x1="408.8477" x2="408.8477" y1="471.3438" y2="1081.6094"/><line style="stroke:#181818;stroke-width:1;" x1="408.8477" x2="206.9238" y1="471.3438" y2="471.3438"/><polygon fill="#181818" points="216.9238,467.3438,206.9238,471.3438,216.9238,475.3438,212.9238,471.3438" style="stroke:#181818;stroke-width:1;"/><line style="stroke:#181818;stroke-width:1;" x1="194.9238" x2="194.9238" y1="1049.6094" y2="1069.6094"/><polygon fill="#181818" points="190.9238,1059.6094,194.9238,1069.6094,198.9238,1059.6094,194.9238,1063.6094" style="stroke:#181818;stroke-width:1;"/><line style="stroke:#181818;stroke-width:1;" x1="194.9238" x2="194.9238" y1="439.3438" y2="459.3438"/><polygon fill="#181818" points="190.9238,449.3438,194.9238,459.3438,198.9238,449.3438,194.9238,453.3438" style="stroke:#181818;stroke-width:1;"/><line style="stroke:#181818;stroke-width:1;" x1="194.9238" x2="194.9238" y1="1093.6094" y2="1113.6094"/><polygon fill="#181818" points="190.9238,1103.6094,194.9238,1113.6094,198.9238,1103.6094,194.9238,1107.6094" style="stroke:#181818;stroke-width:1;"/><line style="stroke:#181818;stroke-width:1;" x1="194.9238" x2="194.9238" y1="1191.5781" y2="1216.5625"/><polygon fill="#181818" points="190.9238,1206.5625,194.9238,1216.5625,198.9238,1206.5625,194.9238,1210.5625" style="stroke:#181818;stroke-width:1;"/><line style="stroke:#181818;stroke-width:1;" x1="347.9531" x2="359.9531" y1="1179.5781" y2="1179.5781"/><polygon fill="#181818" points="355.9531,1223.5469,359.9531,1233.5469,363.9531,1223.5469,359.9531,1227.5469" style="stroke:#181818;stroke-width:1;"/><line style="stroke:#181818;stroke-width:1;" x1="359.9531" x2="359.9531" y1="1179.5781" y2="1282.5313"/><line style="stroke:#181818;stroke-width:1;" x1="359.9531" x2="206.9238" y1="1282.5313" y2="1282.5313"/><polygon fill="#181818" points="216.9238,1278.5313,206.9238,1282.5313,216.9238,1286.5313,212.9238,1282.5313" style="stroke:#181818;stroke-width:1;"/><line style="stroke:#181818;stroke-width:1;" x1="194.9238" x2="194.9238" y1="1250.5313" y2="1270.5313"/><polygon fill="#181818" points="190.9238,1260.5313,194.9238,1270.5313,198.9238,1260.5313,194.9238,1264.5313" style="stroke:#181818;stroke-width:1;"/><line style="stroke:#181818;stroke-width:1;" x1="194.9238" x2="194.9238" y1="1147.5781" y2="1167.5781"/><polygon fill="#181818" points="190.9238,1157.5781,194.9238,1167.5781,198.9238,1157.5781,194.9238,1161.5781" style="stroke:#181818;stroke-width:1;"/><line style="stroke:#181818;stroke-width:1;" x1="194.9238" x2="194.9238" y1="1294.5313" y2="1314.5313"/><polygon fill="#181818" points="190.9238,1304.5313,194.9238,1314.5313,198.9238,1304.5313,194.9238,1308.5313" style="stroke:#181818;stroke-width:1;"/><line style="stroke:#181818;stroke-width:1;" x1="194.9238" x2="194.9238" y1="127.9688" y2="147.9688"/><polygon fill="#181818" points="190.9238,137.9688,194.9238,147.9688,198.9238,137.9688,194.9238,141.9688" style="stroke:#181818;stroke-width:1;"/><line style="stroke:#181818;stroke-width:1;" x1="255.0205" x2="426.8477" y1="1380.5" y2="1380.5"/><polygon fill="#181818" points="422.8477,722.2188,426.8477,712.2188,430.8477,722.2188,426.8477,718.2188" style="stroke:#181818;stroke-width:1;"/><line style="stroke:#181818;stroke-width:1;" x1="426.8477" x2="426.8477" y1="115.9688" y2="1380.5"/><line style="stroke:#181818;stroke-width:1;" x1="426.8477" x2="206.9238" y1="115.9688" y2="115.9688"/><polygon fill="#181818" points="216.9238,111.9688,206.9238,115.9688,216.9238,119.9688,212.9238,115.9688" style="stroke:#181818;stroke-width:1;"/><line style="stroke:#181818;stroke-width:1;" x1="194.9238" x2="194.9238" y1="1348.5" y2="1368.5"/><polygon fill="#181818" points="190.9238,1358.5,194.9238,1368.5,198.9238,1358.5,194.9238,1362.5" style="stroke:#181818;stroke-width:1;"/><line style="stroke:#181818;stroke-width:1;" x1="194.9238" x2="194.9238" y1="83.9688" y2="103.9688"/><polygon fill="#181818" points="190.9238,93.9688,194.9238,103.9688,198.9238,93.9688,194.9238,97.9688" style="stroke:#181818;stroke-width:1;"/><line style="stroke:#181818;stroke-width:1;" x1="194.9238" x2="194.9238" y1="1392.5" y2="1412.5"/><polygon fill="#181818" points="190.9238,1402.5,194.9238,1412.5,198.9238,1402.5,194.9238,1406.5" style="stroke:#181818;stroke-width:1;"/><line style="stroke:#181818;stroke-width:1;" x1="194.9238" x2="194.9238" y1="1446.4688" y2="1466.4688"/><polygon fill="#181818" points="190.9238,1456.4688,194.9238,1466.4688,198.9238,1456.4688,194.9238,1460.4688" style="stroke:#181818;stroke-width:1;"/><!--SRC=[bLHBRjim4Dth5BEqbytINXG5YbmWlS1O7CNJa1o1f1GZryaYwAAheYVGnJhwMAOZkKYq441otinxRuQCJ-nh3EZWErNOsFI3JkcRvKVlo2SezKUXYE-ZxiMd1tuX-79N535XICNEKCMU0zGIkNlh_b84NPUC7C4893mqbZZ8lYW2rOIf0FrsaIoLB1v1e0xTdnCxWP_oY4R2VWoX4nyqSPwXty-o364p330rQC5GIp2d3z0uX9gwDznVCEZHSjJ3I32TNY06eVi5hKQO2JEMXESZMuBD6J07VTs2YjtuxbMsgnpVBM_JfbYAFPBkWPSMpwQ-gaVQ1rW8MHCpG_uZQ2dg0hkbQL6hDxR4EZNAh1BMX7hsWdsD6S0LR6x6QOrq90-Ro6vxhIcGatRmOVHwmkVyoHkkCcezOAsPMTkN4xKgJCrIEsBtkoLxPXj0cXHc8cjpyG7OvEgWTnno5SaLbxT7iHRJZpCa2UTfDkWc0hszdm2j6xuhnIkDbDcTvoAN5SnClwP-bAOTHw9bhSfwhnk5rfXeNony4gZOzS-3tW6v7hMXIQGHNXpr8ItvaePNGOl_0m00]--></g></svg>