<svg xmlns="http://www.w3.org/2000/svg" xmlns:xlink="http://www.w3.org/1999/xlink" contentStyleType="text/css" height="1924px" preserveAspectRatio="none" style="width:537px;height:1924px;background:#FFFFFF;" version="1.1" viewBox="0 0 537 1924" width="537px" zoomAndPan="magnify"><defs/><g><ellipse cx="246.4775" cy="20" fill="#222222" rx="10" ry="10" style="stroke:#222222;stroke-width:1;"/><rect fill="#F1F1F1" height="33.9688" rx="12.5" ry="12.5" style="stroke:#181818;stroke-width:0.5;" width="235.5195" x="128.7178" y="50"/><text fill="#000000" font-family="sans-serif" font-size="12" lengthAdjust="spacing" textLength="215.5195" x="138.7178" y="71.1387">definir posi&#231;&#245;es iniciais do tabuleiro</text><rect fill="#F1F1F1" height="33.9688" rx="12.5" ry="12.5" style="stroke:#181818;stroke-width:0.5;" width="190.2676" x="151.3438" y="147.9688"/><text fill="#000000" font-family="sans-serif" font-size="12" lengthAdjust="spacing" textLength="170.2676" x="161.3438" y="169.1074">seleciona o pr&#243;ximo jogador</text><rect fill="#F1F1F1" height="33.9688" rx="12.5" ry="12.5" style="stroke:#181818;stroke-width:0.5;" width="279.6172" x="106.6689" y="245.9375"/><text fill="#000000" font-family="sans-serif" font-size="12" lengthAdjust="spacing" textLength="259.6172" x="116.6689" y="267.0762">inicializar contador de capturas tempor&#225;rio</text><rect fill="#F1F1F1" height="33.9688" rx="12.5" ry="12.5" style="stroke:#181818;stroke-width:0.5;" width="470.9551" x="11" y="299.9063"/><text fill="#000000" font-family="sans-serif" font-size="12" lengthAdjust="spacing" textLength="450.9551" x="21" y="321.0449">contabilizar e armazenar n&#250;mero m&#225;ximo de capturas poss&#237;veis na rodada</text><rect fill="#F1F1F1" height="33.9688" rx="12.5" ry="12.5" style="stroke:#181818;stroke-width:0.5;" width="349.8652" x="71.5449" y="353.875"/><text fill="#000000" font-family="sans-serif" font-size="12" lengthAdjust="spacing" textLength="329.8652" x="81.5449" y="375.0137">carregar posi&#231;&#245;es do tabuleiro no tabuleiro tempor&#225;rio</text><rect fill="#F1F1F1" height="33.9688" rx="12.5" ry="12.5" style="stroke:#181818;stroke-width:0.5;" width="181.5723" x="155.6914" y="407.8438"/><text fill="#000000" font-family="sans-serif" font-size="12" lengthAdjust="spacing" textLength="161.5723" x="165.6914" y="428.9824">exibir tabuleiro tempor&#225;rio</text><rect fill="#F1F1F1" height="33.9688" rx="12.5" ry="12.5" style="stroke:#181818;stroke-width:0.5;" width="272.7207" x="110.1172" y="505.8125"/><text fill="#000000" font-family="sans-serif" font-size="12" lengthAdjust="spacing" textLength="252.7207" x="120.1172" y="526.9512">o jogador atual deve selecionar uma pe&#231;a</text><rect fill="#F1F1F1" height="33.9688" rx="12.5" ry="12.5" style="stroke:#181818;stroke-width:0.5;" width="255.377" x="118.7891" y="567.2813"/><text fill="#000000" font-family="sans-serif" font-size="12" lengthAdjust="spacing" textLength="235.377" x="128.7891" y="588.4199">analisar se a pe&#231;a selecionada &#233; valida</text><polygon fill="#F1F1F1" points="246.4775,461.8125,258.4775,473.8125,246.4775,485.8125,234.4775,473.8125,246.4775,461.8125" style="stroke:#181818;stroke-width:0.5;"/><polygon fill="#F1F1F1" points="197.6807,621.25,295.2744,621.25,307.2744,633.25,295.2744,645.25,197.6807,645.25,185.6807,633.25,197.6807,621.25" style="stroke:#181818;stroke-width:0.5;"/><text fill="#000000" font-family="sans-serif" font-size="12" lengthAdjust="spacing" textLength="97.5938" x="197.6807" y="637.4043">a pe&#231;a &#233; valida?</text><text fill="#000000" font-family="sans-serif" font-size="12" lengthAdjust="spacing" textLength="22.3008" x="307.2744" y="630.4199">n&#227;o</text><rect fill="#F1F1F1" height="33.9688" rx="12.5" ry="12.5" style="stroke:#181818;stroke-width:0.5;" width="367.8477" x="62.5537" y="753.25"/><text fill="#000000" font-family="sans-serif" font-size="12" lengthAdjust="spacing" textLength="347.8477" x="72.5537" y="774.3887">o jogador atual deve escolher a nova posi&#231;&#227;o para a pe&#231;a</text><rect fill="#F1F1F1" height="33.9688" rx="12.5" ry="12.5" style="stroke:#181818;stroke-width:0.5;" width="272.2637" x="110.3457" y="814.7188"/><text fill="#000000" font-family="sans-serif" font-size="12" lengthAdjust="spacing" textLength="252.2637" x="120.3457" y="835.8574">analisar se a posi&#231;&#227;o selecionada &#233; valida</text><polygon fill="#F1F1F1" points="246.4775,709.25,258.4775,721.25,246.4775,733.25,234.4775,721.25,246.4775,709.25" style="stroke:#181818;stroke-width:0.5;"/><polygon fill="#F1F1F1" points="200.4199,868.6875,292.5352,868.6875,304.5352,880.6875,292.5352,892.6875,200.4199,892.6875,188.4199,880.6875,200.4199,868.6875" style="stroke:#181818;stroke-width:0.5;"/><text fill="#000000" font-family="sans-serif" font-size="12" lengthAdjust="spacing" textLength="92.1152" x="200.4199" y="884.8418">posi&#231;&#227;o valida?</text><text fill="#000000" font-family="sans-serif" font-size="12" lengthAdjust="spacing" textLength="22.3008" x="304.5352" y="877.8574">n&#227;o</text><rect fill="#F1F1F1" height="33.9688" rx="12.5" ry="12.5" style="stroke:#181818;stroke-width:0.5;" width="242.9023" x="125.0264" y="912.6875"/><text fill="#000000" font-family="sans-serif" font-size="12" lengthAdjust="spacing" textLength="222.9023" x="135.0264" y="933.8262">analisar se uma captura foi realizada</text><rect fill="#F1F1F1" height="33.9688" rx="12.5" ry="12.5" style="stroke:#181818;stroke-width:0.5;" width="326.293" x="83.3311" y="1015.6406"/><text fill="#000000" font-family="sans-serif" font-size="12" lengthAdjust="spacing" textLength="306.293" x="93.3311" y="1036.7793">remover a pe&#231;a capturada do tabuleiro tempor&#225;rio</text><rect fill="#F1F1F1" height="33.9688" rx="12.5" ry="12.5" style="stroke:#181818;stroke-width:0.5;" width="319.8945" x="86.5303" y="1084.6094"/><text fill="#000000" font-family="sans-serif" font-size="12" lengthAdjust="spacing" textLength="299.8945" x="96.5303" y="1105.748">adicionar um ao contador de capturas tempor&#225;rio</text><polygon fill="#F1F1F1" points="166.2334,966.6563,326.7217,966.6563,338.7217,978.6563,326.7217,990.6563,166.2334,990.6563,154.2334,978.6563,166.2334,966.6563" style="stroke:#181818;stroke-width:0.5;"/><text fill="#000000" font-family="sans-serif" font-size="12" lengthAdjust="spacing" textLength="21.2754" x="250.4775" y="1001.7949">sim</text><text fill="#000000" font-family="sans-serif" font-size="12" lengthAdjust="spacing" textLength="160.4883" x="166.2334" y="982.8105">uma captura foi realizada?</text><polygon fill="#F1F1F1" points="246.4775,1138.5781,258.4775,1150.5781,246.4775,1162.5781,234.4775,1150.5781,246.4775,1138.5781" style="stroke:#181818;stroke-width:0.5;"/><rect fill="#F1F1F1" height="33.9688" rx="12.5" ry="12.5" style="stroke:#181818;stroke-width:0.5;" width="172.8184" x="160.0684" y="1182.5781"/><text fill="#000000" font-family="sans-serif" font-size="12" lengthAdjust="spacing" textLength="152.8184" x="170.0684" y="1203.7168">move a pe&#231;a selecionada</text><rect fill="#F1F1F1" height="33.9688" rx="12.5" ry="12.5" style="stroke:#181818;stroke-width:0.5;" width="287.4688" x="102.7432" y="1236.5469"/><text fill="#000000" font-family="sans-serif" font-size="12" lengthAdjust="spacing" textLength="267.4688" x="112.7432" y="1257.6855">armazenar posi&#231;&#245;es no tabuleiro tempor&#225;rio</text><rect fill="#F1F1F1" height="33.9688" rx="12.5" ry="12.5" style="stroke:#181818;stroke-width:0.5;" width="192.7285" x="150.1133" y="1290.5156"/><text fill="#000000" font-family="sans-serif" font-size="12" lengthAdjust="spacing" textLength="172.7285" x="160.1133" y="1311.6543">exibir o tabuleiro tempor&#225;rio</text><rect fill="#F1F1F1" height="33.9688" rx="12.5" ry="12.5" style="stroke:#181818;stroke-width:0.5;" width="283.0684" x="104.9434" y="1344.4844"/><text fill="#000000" font-family="sans-serif" font-size="12" lengthAdjust="spacing" textLength="263.0684" x="114.9434" y="1365.623">analisar se &#233; poss&#237;vel realizar outra captura</text><polygon fill="#F1F1F1" points="246.4775,665.25,258.4775,677.25,246.4775,689.25,234.4775,677.25,246.4775,665.25" style="stroke:#181818;stroke-width:0.5;"/><polygon fill="#F1F1F1" points="146.1504,1398.4531,346.8047,1398.4531,358.8047,1410.4531,346.8047,1422.4531,146.1504,1422.4531,134.1504,1410.4531,146.1504,1398.4531" style="stroke:#181818;stroke-width:0.5;"/><text fill="#000000" font-family="sans-serif" font-size="12" lengthAdjust="spacing" textLength="200.6543" x="146.1504" y="1414.6074">&#233; poss&#237;vel realizar outra captura?</text><text fill="#000000" font-family="sans-serif" font-size="12" lengthAdjust="spacing" textLength="21.2754" x="358.8047" y="1407.623">sim</text><polygon fill="#F1F1F1" points="246.4775,201.9375,258.4775,213.9375,246.4775,225.9375,234.4775,213.9375,246.4775,201.9375" style="stroke:#181818;stroke-width:0.5;"/><polygon fill="#F1F1F1" points="115.0313,1442.4531,377.9238,1442.4531,389.9238,1454.4531,377.9238,1466.4531,115.0313,1466.4531,103.0313,1454.4531,115.0313,1442.4531" style="stroke:#181818;stroke-width:0.5;"/><text fill="#000000" font-family="sans-serif" font-size="12" lengthAdjust="spacing" textLength="262.8926" x="115.0313" y="1458.6074">o n&#250;mero m&#225;ximo de capturas foi atingido?</text><text fill="#000000" font-family="sans-serif" font-size="12" lengthAdjust="spacing" textLength="22.3008" x="389.9238" y="1451.623">n&#227;o</text><rect fill="#F1F1F1" height="33.9688" rx="12.5" ry="12.5" style="stroke:#181818;stroke-width:0.5;" width="366.1484" x="63.4033" y="1486.4531"/><text fill="#000000" font-family="sans-serif" font-size="12" lengthAdjust="spacing" textLength="346.1484" x="73.4033" y="1507.5918">verificar se a pe&#231;a selecionada pode se tornar uma dama</text><rect fill="#F1F1F1" height="33.9688" rx="12.5" ry="12.5" style="stroke:#181818;stroke-width:0.5;" width="258.002" x="117.4766" y="1589.4063"/><text fill="#000000" font-family="sans-serif" font-size="12" lengthAdjust="spacing" textLength="238.002" x="127.4766" y="1610.5449">converter a pe&#231;a selecionada em dama</text><polygon fill="#F1F1F1" points="105.4482,1540.4219,387.5068,1540.4219,399.5068,1552.4219,387.5068,1564.4219,105.4482,1564.4219,93.4482,1552.4219,105.4482,1540.4219" style="stroke:#181818;stroke-width:0.5;"/><text fill="#000000" font-family="sans-serif" font-size="12" lengthAdjust="spacing" textLength="21.2754" x="250.4775" y="1575.5605">sim</text><text fill="#000000" font-family="sans-serif" font-size="12" lengthAdjust="spacing" textLength="282.0586" x="105.4482" y="1556.5762">a pe&#231;a selecionada pode se tornar uma dama?</text><polygon fill="#F1F1F1" points="246.4775,1643.375,258.4775,1655.375,246.4775,1667.375,234.4775,1655.375,246.4775,1643.375" style="stroke:#181818;stroke-width:0.5;"/><rect fill="#F1F1F1" height="33.9688" rx="12.5" ry="12.5" style="stroke:#181818;stroke-width:0.5;" width="363.6641" x="64.6455" y="1687.375"/><text fill="#000000" font-family="sans-serif" font-size="12" lengthAdjust="spacing" textLength="343.6641" x="74.6455" y="1708.5137">armazenar posi&#231;&#245;es do tabuleiro tempor&#225;rio no tabuleiro</text><rect fill="#F1F1F1" height="33.9688" rx="12.5" ry="12.5" style="stroke:#181818;stroke-width:0.5;" width="268.584" x="112.1855" y="1741.3438"/><text fill="#000000" font-family="sans-serif" font-size="12" lengthAdjust="spacing" textLength="248.584" x="122.1855" y="1762.4824">verificar se houve uma vitoria ou empate</text><polygon fill="#F1F1F1" points="246.4775,103.9688,258.4775,115.9688,246.4775,127.9688,234.4775,115.9688,246.4775,103.9688" style="stroke:#181818;stroke-width:0.5;"/><polygon fill="#F1F1F1" points="198.3809,1795.3125,294.5742,1795.3125,306.5742,1807.3125,294.5742,1819.3125,198.3809,1819.3125,186.3809,1807.3125,198.3809,1795.3125" style="stroke:#181818;stroke-width:0.5;"/><text fill="#000000" font-family="sans-serif" font-size="12" lengthAdjust="spacing" textLength="96.1934" x="198.3809" y="1811.4668">&#233; o fim do jogo?</text><text fill="#000000" font-family="sans-serif" font-size="12" lengthAdjust="spacing" textLength="22.3008" x="306.5742" y="1804.4824">n&#227;o</text><rect fill="#F1F1F1" height="33.9688" rx="12.5" ry="12.5" style="stroke:#181818;stroke-width:0.5;" width="180.3594" x="156.2979" y="1839.3125"/><text fill="#000000" font-family="sans-serif" font-size="12" lengthAdjust="spacing" textLength="160.3594" x="166.2979" y="1860.4512">exibe o nome do vencedor</text><ellipse cx="246.4775" cy="1903.2813" fill="none" rx="10" ry="10" style="stroke:#222222;stroke-width:1.5;"/><line style="stroke:#222222;stroke-width:2.5;" x1="240.2904" x2="252.6647" y1="1897.0941" y2="1909.4684"/><line style="stroke:#222222;stroke-width:2.5;" x1="252.6647" x2="240.2904" y1="1897.0941" y2="1909.4684"/><line style="stroke:#181818;stroke-width:1;" x1="246.4775" x2="246.4775" y1="30" y2="50"/><polygon fill="#181818" points="242.4775,40,246.4775,50,250.4775,40,246.4775,44" style="stroke:#181818;stroke-width:1;"/><line style="stroke:#181818;stroke-width:1;" x1="246.4775" x2="246.4775" y1="279.9063" y2="299.9063"/><polygon fill="#181818" points="242.4775,289.9063,246.4775,299.9063,250.4775,289.9063,246.4775,293.9063" style="stroke:#181818;stroke-width:1;"/><line style="stroke:#181818;stroke-width:1;" x1="246.4775" x2="246.4775" y1="333.875" y2="353.875"/><polygon fill="#181818" points="242.4775,343.875,246.4775,353.875,250.4775,343.875,246.4775,347.875" style="stroke:#181818;stroke-width:1;"/><line style="stroke:#181818;stroke-width:1;" x1="246.4775" x2="246.4775" y1="387.8438" y2="407.8438"/><polygon fill="#181818" points="242.4775,397.8438,246.4775,407.8438,250.4775,397.8438,246.4775,401.8438" style="stroke:#181818;stroke-width:1;"/><line style="stroke:#181818;stroke-width:1;" x1="246.4775" x2="246.4775" y1="539.7813" y2="567.2813"/><polygon fill="#181818" points="242.4775,557.2813,246.4775,567.2813,250.4775,557.2813,246.4775,561.2813" style="stroke:#181818;stroke-width:1;"/><line style="stroke:#181818;stroke-width:1;" x1="246.4775" x2="246.4775" y1="485.8125" y2="505.8125"/><polygon fill="#181818" points="242.4775,495.8125,246.4775,505.8125,250.4775,495.8125,246.4775,499.8125" style="stroke:#181818;stroke-width:1;"/><line style="stroke:#181818;stroke-width:1;" x1="307.2744" x2="394.8379" y1="633.25" y2="633.25"/><polygon fill="#181818" points="390.8379,559.7813,394.8379,549.7813,398.8379,559.7813,394.8379,555.7813" style="stroke:#181818;stroke-width:1;"/><line style="stroke:#181818;stroke-width:1;" x1="394.8379" x2="394.8379" y1="473.8125" y2="633.25"/><line style="stroke:#181818;stroke-width:1;" x1="394.8379" x2="258.4775" y1="473.8125" y2="473.8125"/><polygon fill="#181818" points="268.4775,469.8125,258.4775,473.8125,268.4775,477.8125,264.4775,473.8125" style="stroke:#181818;stroke-width:1;"/><line style="stroke:#181818;stroke-width:1;" x1="246.4775" x2="246.4775" y1="601.25" y2="621.25"/><polygon fill="#181818" points="242.4775,611.25,246.4775,621.25,250.4775,611.25,246.4775,615.25" style="stroke:#181818;stroke-width:1;"/><line style="stroke:#181818;stroke-width:1;" x1="246.4775" x2="246.4775" y1="441.8125" y2="461.8125"/><polygon fill="#181818" points="242.4775,451.8125,246.4775,461.8125,250.4775,451.8125,246.4775,455.8125" style="stroke:#181818;stroke-width:1;"/><line style="stroke:#181818;stroke-width:1;" x1="246.4775" x2="246.4775" y1="787.2188" y2="814.7188"/><polygon fill="#181818" points="242.4775,804.7188,246.4775,814.7188,250.4775,804.7188,246.4775,808.7188" style="stroke:#181818;stroke-width:1;"/><line style="stroke:#181818;stroke-width:1;" x1="246.4775" x2="246.4775" y1="733.25" y2="753.25"/><polygon fill="#181818" points="242.4775,743.25,246.4775,753.25,250.4775,743.25,246.4775,747.25" style="stroke:#181818;stroke-width:1;"/><line style="stroke:#181818;stroke-width:1;" x1="304.5352" x2="442.4014" y1="880.6875" y2="880.6875"/><polygon fill="#181818" points="438.4014,807.2188,442.4014,797.2188,446.4014,807.2188,442.4014,803.2188" style="stroke:#181818;stroke-width:1;"/><line style="stroke:#181818;stroke-width:1;" x1="442.4014" x2="442.4014" y1="721.25" y2="880.6875"/><line style="stroke:#181818;stroke-width:1;" x1="442.4014" x2="258.4775" y1="721.25" y2="721.25"/><polygon fill="#181818" points="268.4775,717.25,258.4775,721.25,268.4775,725.25,264.4775,721.25" style="stroke:#181818;stroke-width:1;"/><line style="stroke:#181818;stroke-width:1;" x1="246.4775" x2="246.4775" y1="848.6875" y2="868.6875"/><polygon fill="#181818" points="242.4775,858.6875,246.4775,868.6875,250.4775,858.6875,246.4775,862.6875" style="stroke:#181818;stroke-width:1;"/><line style="stroke:#181818;stroke-width:1;" x1="246.4775" x2="246.4775" y1="892.6875" y2="912.6875"/><polygon fill="#181818" points="242.4775,902.6875,246.4775,912.6875,250.4775,902.6875,246.4775,906.6875" style="stroke:#181818;stroke-width:1;"/><line style="stroke:#181818;stroke-width:1;" x1="246.4775" x2="246.4775" y1="1049.6094" y2="1084.6094"/><polygon fill="#181818" points="242.4775,1074.6094,246.4775,1084.6094,250.4775,1074.6094,246.4775,1078.6094" style="stroke:#181818;stroke-width:1;"/><line style="stroke:#181818;stroke-width:1;" x1="246.4775" x2="246.4775" y1="990.6563" y2="1015.6406"/><polygon fill="#181818" points="242.4775,1005.6406,246.4775,1015.6406,250.4775,1005.6406,246.4775,1009.6406" style="stroke:#181818;stroke-width:1;"/><line style="stroke:#181818;stroke-width:1;" x1="338.7217" x2="419.624" y1="978.6563" y2="978.6563"/><polygon fill="#181818" points="415.624,1057.1094,419.624,1067.1094,423.624,1057.1094,419.624,1061.1094" style="stroke:#181818;stroke-width:1;"/><line style="stroke:#181818;stroke-width:1;" x1="419.624" x2="419.624" y1="978.6563" y2="1150.5781"/><line style="stroke:#181818;stroke-width:1;" x1="419.624" x2="258.4775" y1="1150.5781" y2="1150.5781"/><polygon fill="#181818" points="268.4775,1146.5781,258.4775,1150.5781,268.4775,1154.5781,264.4775,1150.5781" style="stroke:#181818;stroke-width:1;"/><line style="stroke:#181818;stroke-width:1;" x1="246.4775" x2="246.4775" y1="1118.5781" y2="1138.5781"/><polygon fill="#181818" points="242.4775,1128.5781,246.4775,1138.5781,250.4775,1128.5781,246.4775,1132.5781" style="stroke:#181818;stroke-width:1;"/><line style="stroke:#181818;stroke-width:1;" x1="246.4775" x2="246.4775" y1="946.6563" y2="966.6563"/><polygon fill="#181818" points="242.4775,956.6563,246.4775,966.6563,250.4775,956.6563,246.4775,960.6563" style="stroke:#181818;stroke-width:1;"/><line style="stroke:#181818;stroke-width:1;" x1="246.4775" x2="246.4775" y1="1162.5781" y2="1182.5781"/><polygon fill="#181818" points="242.4775,1172.5781,246.4775,1182.5781,250.4775,1172.5781,246.4775,1176.5781" style="stroke:#181818;stroke-width:1;"/><line style="stroke:#181818;stroke-width:1;" x1="246.4775" x2="246.4775" y1="1216.5469" y2="1236.5469"/><polygon fill="#181818" points="242.4775,1226.5469,246.4775,1236.5469,250.4775,1226.5469,246.4775,1230.5469" style="stroke:#181818;stroke-width:1;"/><line style="stroke:#181818;stroke-width:1;" x1="246.4775" x2="246.4775" y1="1270.5156" y2="1290.5156"/><polygon fill="#181818" points="242.4775,1280.5156,246.4775,1290.5156,250.4775,1280.5156,246.4775,1284.5156" style="stroke:#181818;stroke-width:1;"/><line style="stroke:#181818;stroke-width:1;" x1="246.4775" x2="246.4775" y1="1324.4844" y2="1344.4844"/><polygon fill="#181818" points="242.4775,1334.4844,246.4775,1344.4844,250.4775,1334.4844,246.4775,1338.4844" style="stroke:#181818;stroke-width:1;"/><line style="stroke:#181818;stroke-width:1;" x1="246.4775" x2="246.4775" y1="689.25" y2="709.25"/><polygon fill="#181818" points="242.4775,699.25,246.4775,709.25,250.4775,699.25,246.4775,703.25" style="stroke:#181818;stroke-width:1;"/><line style="stroke:#181818;stroke-width:1;" x1="358.8047" x2="466.4014" y1="1410.4531" y2="1410.4531"/><polygon fill="#181818" points="462.4014,1039.5938,466.4014,1029.5938,470.4014,1039.5938,466.4014,1035.5938" style="stroke:#181818;stroke-width:1;"/><line style="stroke:#181818;stroke-width:1;" x1="466.4014" x2="466.4014" y1="677.25" y2="1410.4531"/><line style="stroke:#181818;stroke-width:1;" x1="466.4014" x2="258.4775" y1="677.25" y2="677.25"/><polygon fill="#181818" points="268.4775,673.25,258.4775,677.25,268.4775,681.25,264.4775,677.25" style="stroke:#181818;stroke-width:1;"/><line style="stroke:#181818;stroke-width:1;" x1="246.4775" x2="246.4775" y1="1378.4531" y2="1398.4531"/><polygon fill="#181818" points="242.4775,1388.4531,246.4775,1398.4531,250.4775,1388.4531,246.4775,1392.4531" style="stroke:#181818;stroke-width:1;"/><line style="stroke:#181818;stroke-width:1;" x1="246.4775" x2="246.4775" y1="645.25" y2="665.25"/><polygon fill="#181818" points="242.4775,655.25,246.4775,665.25,250.4775,655.25,246.4775,659.25" style="stroke:#181818;stroke-width:1;"/><line style="stroke:#181818;stroke-width:1;" x1="246.4775" x2="246.4775" y1="225.9375" y2="245.9375"/><polygon fill="#181818" points="242.4775,235.9375,246.4775,245.9375,250.4775,235.9375,246.4775,239.9375" style="stroke:#181818;stroke-width:1;"/><line style="stroke:#181818;stroke-width:1;" x1="389.9238" x2="493.9551" y1="1454.4531" y2="1454.4531"/><polygon fill="#181818" points="489.9551,818.6875,493.9551,808.6875,497.9551,818.6875,493.9551,814.6875" style="stroke:#181818;stroke-width:1;"/><line style="stroke:#181818;stroke-width:1;" x1="493.9551" x2="493.9551" y1="213.9375" y2="1454.4531"/><line style="stroke:#181818;stroke-width:1;" x1="493.9551" x2="258.4775" y1="213.9375" y2="213.9375"/><polygon fill="#181818" points="268.4775,209.9375,258.4775,213.9375,268.4775,217.9375,264.4775,213.9375" style="stroke:#181818;stroke-width:1;"/><line style="stroke:#181818;stroke-width:1;" x1="246.4775" x2="246.4775" y1="1422.4531" y2="1442.4531"/><polygon fill="#181818" points="242.4775,1432.4531,246.4775,1442.4531,250.4775,1432.4531,246.4775,1436.4531" style="stroke:#181818;stroke-width:1;"/><line style="stroke:#181818;stroke-width:1;" x1="246.4775" x2="246.4775" y1="181.9375" y2="201.9375"/><polygon fill="#181818" points="242.4775,191.9375,246.4775,201.9375,250.4775,191.9375,246.4775,195.9375" style="stroke:#181818;stroke-width:1;"/><line style="stroke:#181818;stroke-width:1;" x1="246.4775" x2="246.4775" y1="1466.4531" y2="1486.4531"/><polygon fill="#181818" points="242.4775,1476.4531,246.4775,1486.4531,250.4775,1476.4531,246.4775,1480.4531" style="stroke:#181818;stroke-width:1;"/><line style="stroke:#181818;stroke-width:1;" x1="246.4775" x2="246.4775" y1="1564.4219" y2="1589.4063"/><polygon fill="#181818" points="242.4775,1579.4063,246.4775,1589.4063,250.4775,1579.4063,246.4775,1583.4063" style="stroke:#181818;stroke-width:1;"/><line style="stroke:#181818;stroke-width:1;" x1="399.5068" x2="411.5068" y1="1552.4219" y2="1552.4219"/><polygon fill="#181818" points="407.5068,1596.3906,411.5068,1606.3906,415.5068,1596.3906,411.5068,1600.3906" style="stroke:#181818;stroke-width:1;"/><line style="stroke:#181818;stroke-width:1;" x1="411.5068" x2="411.5068" y1="1552.4219" y2="1655.375"/><line style="stroke:#181818;stroke-width:1;" x1="411.5068" x2="258.4775" y1="1655.375" y2="1655.375"/><polygon fill="#181818" points="268.4775,1651.375,258.4775,1655.375,268.4775,1659.375,264.4775,1655.375" style="stroke:#181818;stroke-width:1;"/><line style="stroke:#181818;stroke-width:1;" x1="246.4775" x2="246.4775" y1="1623.375" y2="1643.375"/><polygon fill="#181818" points="242.4775,1633.375,246.4775,1643.375,250.4775,1633.375,246.4775,1637.375" style="stroke:#181818;stroke-width:1;"/><line style="stroke:#181818;stroke-width:1;" x1="246.4775" x2="246.4775" y1="1520.4219" y2="1540.4219"/><polygon fill="#181818" points="242.4775,1530.4219,246.4775,1540.4219,250.4775,1530.4219,246.4775,1534.4219" style="stroke:#181818;stroke-width:1;"/><line style="stroke:#181818;stroke-width:1;" x1="246.4775" x2="246.4775" y1="1667.375" y2="1687.375"/><polygon fill="#181818" points="242.4775,1677.375,246.4775,1687.375,250.4775,1677.375,246.4775,1681.375" style="stroke:#181818;stroke-width:1;"/><line style="stroke:#181818;stroke-width:1;" x1="246.4775" x2="246.4775" y1="1721.3438" y2="1741.3438"/><polygon fill="#181818" points="242.4775,1731.3438,246.4775,1741.3438,250.4775,1731.3438,246.4775,1735.3438" style="stroke:#181818;stroke-width:1;"/><line style="stroke:#181818;stroke-width:1;" x1="246.4775" x2="246.4775" y1="127.9688" y2="147.9688"/><polygon fill="#181818" points="242.4775,137.9688,246.4775,147.9688,250.4775,137.9688,246.4775,141.9688" style="stroke:#181818;stroke-width:1;"/><line style="stroke:#181818;stroke-width:1;" x1="306.5742" x2="511.9551" y1="1807.3125" y2="1807.3125"/><polygon fill="#181818" points="507.9551,928.125,511.9551,918.125,515.9551,928.125,511.9551,924.125" style="stroke:#181818;stroke-width:1;"/><line style="stroke:#181818;stroke-width:1;" x1="511.9551" x2="511.9551" y1="115.9688" y2="1807.3125"/><line style="stroke:#181818;stroke-width:1;" x1="511.9551" x2="258.4775" y1="115.9688" y2="115.9688"/><polygon fill="#181818" points="268.4775,111.9688,258.4775,115.9688,268.4775,119.9688,264.4775,115.9688" style="stroke:#181818;stroke-width:1;"/><line style="stroke:#181818;stroke-width:1;" x1="246.4775" x2="246.4775" y1="1775.3125" y2="1795.3125"/><polygon fill="#181818" points="242.4775,1785.3125,246.4775,1795.3125,250.4775,1785.3125,246.4775,1789.3125" style="stroke:#181818;stroke-width:1;"/><line style="stroke:#181818;stroke-width:1;" x1="246.4775" x2="246.4775" y1="83.9688" y2="103.9688"/><polygon fill="#181818" points="242.4775,93.9688,246.4775,103.9688,250.4775,93.9688,246.4775,97.9688" style="stroke:#181818;stroke-width:1;"/><line style="stroke:#181818;stroke-width:1;" x1="246.4775" x2="246.4775" y1="1819.3125" y2="1839.3125"/><polygon fill="#181818" points="242.4775,1829.3125,246.4775,1839.3125,250.4775,1829.3125,246.4775,1833.3125" style="stroke:#181818;stroke-width:1;"/><line style="stroke:#181818;stroke-width:1;" x1="246.4775" x2="246.4775" y1="1873.2813" y2="1893.2813"/><polygon fill="#181818" points="242.4775,1883.2813,246.4775,1893.2813,250.4775,1883.2813,246.4775,1887.2813" style="stroke:#181818;stroke-width:1;"/><!--SRC=[bLMzZfj04EvvYYdjCYdj8eeKvGMI5nYpWpq9kujs5yxosvokEAL85QL9oujb5WnUO_3vA12WRtw-RxvP_4ys5JhKy8KAhClmdOxXSybxeya4oEL6BlDJr5ThmZS-4Npuc6K-e0lPHb71XXrKrdFxslub3_AUCx87PI7WhYw9dTrccQEAC6GWryPJIJbRWs2XSksV8siBF-mUbNK2ZPW4teNqQKi-eODSEebGK0GvLg5sw26GhgnhdnrBjJ6iW-wuZoD0f_54HfvD-q-Jiw3RvwvwcahO-FPtGq92MdHMeS8q9pf7UxnYdP85axxCzqL7tebk2x0HDr6X2nsL0Wmrbj9vGp0gwg3M21MrhqdBNHmQaSyBm8iEFU8IfX3QNz088gNQbuUd0vS4go5e17vQWqYqCksBNT_jUURJCXNokIqF9Dz4o0O7bL_4Ac97c2KtHt0CUuFaBT5Bw3sUDpMZy6SFGM5PadP-ZRMkWhY0rI9MQeK36LXvrkjRZewqRJfj-bcSSmWpzQRfBaqh7hq2QD-nJ_4YexYOo12RcZFLr8BZ-YMhOnvgVDYOny3fM6JamqANWywIfmvkb6_9yG-4dhqnJkiwWRrxpiJ1Os2pPsLlFRQHENF1-VB6LbR5pOTWtR3u2lMPJNJPEuBcVHVFJsaZ98vBSv5E2YQ-c1_qaaEl7B2TuNwmTTElLyFIDijlevRQ5GRQPZSJir2mZiNaR9d8sfc885RK524DcPowduvq_ny0]--></g></svg>